<svg width="24" height="24" viewBox="0 0 24 24" fill="none" xmlns="http://www.w3.org/2000/svg">
<path d="M12.6657 17.7774L11.5048 19.1609C11.4016 19.2815 11.2705 19.3749 11.1227 19.4329C10.975 19.491 10.8153 19.5118 10.6577 19.4937C10.5 19.4755 10.3492 19.4189 10.2186 19.3288C10.0879 19.2387 9.98142 19.1179 9.9084 18.977L8.10889 15.4747L12.6657 17.7774Z" fill="#222222"/>
<path d="M19.3222 4.15507L16.8358 16.9356C16.8072 17.0821 16.745 17.22 16.6542 17.3384C16.5634 17.4568 16.4464 17.5526 16.3124 17.6182C16.1783 17.6838 16.0309 17.7175 15.8817 17.7165C15.7325 17.7156 15.5855 17.6801 15.4522 17.6129L10.3246 15.02L17.0873 5.77082C17.0984 5.75664 17.1035 5.73869 17.1016 5.7208C17.0996 5.70291 17.0907 5.68651 17.0767 5.67512C17.0628 5.66372 17.0449 5.65824 17.027 5.65985C17.0091 5.66146 16.9925 5.67003 16.9808 5.68372L8.90232 14.2944L5.03235 12.3401C4.87662 12.2626 4.74486 12.1442 4.65116 11.9977C4.55747 11.8511 4.50535 11.6819 4.50039 11.508C4.49543 11.3341 4.53781 11.1622 4.623 11.0105C4.70818 10.8589 4.83298 10.7332 4.98405 10.647L17.8903 3.12953C18.0512 3.03663 18.2355 2.99206 18.4211 3.00116C18.6067 3.01026 18.7857 3.07263 18.9368 3.18083C19.0878 3.28902 19.2045 3.43844 19.2729 3.61122C19.3412 3.784 19.3584 3.97281 19.3222 4.15507Z" fill="#222222"/>
</svg>
