<svg xmlns="http://www.w3.org/2000/svg" width="18" height="16" viewBox="0 0 18 16" fill="none">
<path d="M9.80605 4.08696C9.80605 6.06798 8.20011 7.67391 6.21909 7.67391C4.23807 7.67391 2.63213 6.06798 2.63213 4.08696C2.63213 2.10594 4.23807 0.5 6.21909 0.5C8.20011 0.5 9.80605 2.10594 9.80605 4.08696Z" fill="#222222"/>
<path d="M0.0234375 14.8614C0.0234375 11.252 2.98604 8.32609 6.59537 8.32609C9.7914 8.32609 12.4147 10.917 12.4147 14.113V14.7802C12.4147 15.1777 12.0925 15.5 11.695 15.5H0.662065C0.309361 15.5 0.0234375 15.2141 0.0234375 14.8614Z" fill="#222222"/>
<path d="M15.6744 5.06475C15.6744 6.50549 14.5065 7.67345 13.0657 7.67345C11.625 7.67345 10.457 6.50549 10.457 5.06475C10.457 3.62401 11.625 2.45605 13.0657 2.45605C14.5065 2.45605 15.6744 3.62401 15.6744 5.06475Z" fill="#222222"/>
<path d="M13.409 14.1952H17.3853C17.7105 14.1952 17.9742 13.9315 17.9742 13.6063V12.8942C17.9742 10.3711 15.9288 8.32562 13.4056 8.32562C12.4757 8.32562 11.6028 8.56902 10.8469 8.99557C12.3893 10.0365 13.409 11.7939 13.409 13.7864V14.1952Z" fill="#222222"/>
</svg>