<svg width="24" height="24" viewBox="0 0 24 24" fill="none" xmlns="http://www.w3.org/2000/svg">
<path d="M7.17657 15.2211L6.44588 17.0117C6.32555 17.2975 6.09816 17.5248 5.81236 17.6451C5.52656 17.7654 5.20504 17.769 4.91658 17.6553C4.62811 17.5415 4.39562 17.3194 4.26882 17.0364C4.14202 16.7535 4.13099 16.4321 4.23808 16.1411L4.70393 14.975C4.79848 14.9813 4.89311 14.9876 4.99406 14.9876H5.24C5.8925 14.9884 6.54259 15.0667 7.17657 15.2211Z" fill="#222222"/>
<path d="M4.61032 8.94323C4.62726 8.94323 4.87647 8.94323 5.28987 8.90369V14.6687C5.06899 14.6573 4.84246 14.6573 4.61032 14.663C3.88474 14.6603 3.18973 14.3705 2.67719 13.8569C2.16464 13.3433 1.87624 12.6477 1.875 11.9222L1.875 11.6843C1.87526 10.9584 2.16334 10.2622 2.6761 9.74836C3.18885 9.23454 3.88442 8.945 4.61032 8.94323Z" fill="#222222"/>
<path d="M12.2554 7.19352V16.0619C12.2556 16.2113 12.2144 16.3578 12.1363 16.4852C12.0583 16.6125 11.9463 16.7157 11.8131 16.7832C11.6798 16.8507 11.5304 16.8799 11.3816 16.8676C11.2327 16.8552 11.0901 16.8018 10.9698 16.7132C9.62103 15.7313 8.06557 15.0707 6.42236 14.782V8.74521C8.08798 8.47162 9.64044 7.72682 10.8962 6.59887C11.0118 6.49201 11.156 6.42117 11.3113 6.39503C11.4665 6.36889 11.626 6.38857 11.7703 6.45167C11.9145 6.51477 12.0372 6.61856 12.1234 6.75031C12.2095 6.88207 12.2554 7.03609 12.2554 7.19352Z" fill="#222222"/>
<path d="M15.473 11.8013C15.474 12.327 15.2669 12.8318 14.8969 13.2053C14.527 13.5787 14.0242 13.7906 13.4985 13.7946V9.80798C14.0239 9.81306 14.526 10.0253 14.8957 10.3986C15.2655 10.7718 15.4729 11.276 15.473 11.8013Z" fill="#222222"/>
<path d="M21.2513 12.7136H18.1869C17.9565 12.7129 17.7357 12.6209 17.5729 12.4576C17.4102 12.2944 17.3188 12.0733 17.3188 11.8428C17.3188 11.6124 17.4102 11.3913 17.5729 11.2281C17.7357 11.0648 17.9565 10.9728 18.1869 10.9721H21.2513C21.3659 10.9717 21.4794 10.994 21.5854 11.0376C21.6914 11.0812 21.7877 11.1452 21.8688 11.2261C21.95 11.307 22.0144 11.4032 22.0583 11.509C22.1022 11.6148 22.1248 11.7283 22.1248 11.8428C22.1248 11.9574 22.1022 12.0709 22.0583 12.1767C22.0144 12.2825 21.95 12.3787 21.8688 12.4596C21.7877 12.5405 21.6914 12.6045 21.5854 12.6481C21.4794 12.6917 21.3659 12.714 21.2513 12.7136Z" fill="#222222"/>
<path d="M17.4085 9.56091C17.2167 9.56113 17.0301 9.49802 16.8779 9.38138C16.7256 9.26474 16.6161 9.1011 16.5664 8.91585C16.5167 8.73061 16.5295 8.53413 16.6029 8.35692C16.6762 8.17971 16.8061 8.03168 16.9722 7.93581L19.7075 6.35664C19.8065 6.29946 19.9159 6.26235 20.0293 6.24743C20.1427 6.23251 20.2579 6.24007 20.3684 6.26968C20.4789 6.2993 20.5824 6.35038 20.6731 6.42001C20.7639 6.48964 20.84 6.57647 20.8972 6.67552C20.9544 6.77458 20.9915 6.88393 21.0064 6.99732C21.0213 7.11072 21.0138 7.22595 20.9841 7.33642C20.9545 7.4469 20.9035 7.55046 20.8338 7.64119C20.7642 7.73192 20.6774 7.80805 20.5783 7.86523L17.843 9.4444C17.7109 9.52075 17.561 9.56093 17.4085 9.56091Z" fill="#222222"/>
<path d="M20.1422 17.4823C19.9896 17.4823 19.8397 17.4421 19.7076 17.3658L17.0034 15.8044C16.8034 15.689 16.6574 15.4987 16.5976 15.2756C16.5378 15.0525 16.569 14.8148 16.6845 14.6147C16.8 14.4147 16.9902 14.2687 17.2133 14.2089C17.4364 14.1491 17.6742 14.1804 17.8742 14.2958L20.5785 15.8572C20.7446 15.953 20.8744 16.1011 20.9478 16.2783C21.0212 16.4555 21.034 16.652 20.9843 16.8372C20.9345 17.0224 20.825 17.1861 20.6728 17.3027C20.5205 17.4194 20.334 17.4825 20.1422 17.4823H20.1422Z" fill="#222222"/>
</svg>
