<svg width="16" height="13" viewBox="0 0 16 13" fill="none" xmlns="http://www.w3.org/2000/svg">
<path d="M14.4 0H1.6C0.7176 0 0 0.7176 0 1.6V11.2C0 12.0824 0.7176 12.8 1.6 12.8H14.4C15.2824 12.8 16 12.0824 16 11.2V1.6C16 0.7176 15.2824 0 14.4 0ZM5.372 3.2C6.2928 3.2 6.972 3.8792 6.972 4.8C6.972 5.7208 6.2928 6.4 5.372 6.4C4.4512 6.4 3.772 5.7208 3.772 4.8C3.772 3.8792 4.4504 3.2 5.372 3.2ZM8.344 9.6H2.4V9.228C2.4 8.1296 3.7408 7 5.372 7C7.0032 7 8.344 8.1296 8.344 9.228V9.6ZM13.6 8.8H10.4V7.2H13.6V8.8ZM13.6 5.6H9.6V4H13.6V5.6Z" fill="#222222"/>
</svg>
