<svg xmlns="http://www.w3.org/2000/svg" width="16" height="17" viewBox="0 0 16 17" fill="none">
<path d="M8.66621 14.7772L7.50527 16.1607C7.40213 16.2813 7.27094 16.3748 7.12323 16.4328C6.97553 16.4908 6.81583 16.5117 6.65817 16.4935C6.50052 16.4754 6.34974 16.4188 6.21908 16.3287C6.08843 16.2386 5.98191 16.1178 5.90889 15.9769L4.10938 12.4746L8.66621 14.7772Z" fill="#222222"/>
<path d="M15.3222 1.15507L12.8358 13.9356C12.8072 14.0821 12.745 14.22 12.6542 14.3384C12.5634 14.4568 12.4464 14.5526 12.3124 14.6182C12.1783 14.6838 12.0309 14.7175 11.8817 14.7165C11.7325 14.7156 11.5855 14.6801 11.4522 14.6129L6.32461 12.02L13.0873 2.77082C13.0984 2.75664 13.1035 2.73869 13.1016 2.7208C13.0996 2.70291 13.0907 2.68651 13.0767 2.67512C13.0628 2.66372 13.0449 2.65824 13.027 2.65985C13.0091 2.66146 12.9925 2.67003 12.9808 2.68372L4.90232 11.2944L1.03235 9.34005C0.876616 9.26258 0.744858 9.14424 0.651162 8.99769C0.557465 8.85114 0.505352 8.68188 0.500391 8.50801C0.49543 8.33414 0.537808 8.16218 0.622996 8.01053C0.708184 7.85887 0.83298 7.73322 0.984046 7.64699L13.8903 0.129531C14.0512 0.0366308 14.2355 -0.00793713 14.4211 0.00115981C14.6067 0.0102568 14.7857 0.0726333 14.9368 0.180825C15.0878 0.289017 15.2045 0.438443 15.2729 0.611221C15.3412 0.783999 15.3584 0.972812 15.3222 1.15507Z" fill="#222222"/>
</svg>