<svg width="24" height="24" viewBox="0 0 24 24" fill="none" xmlns="http://www.w3.org/2000/svg">
<path d="M17.6524 6.34756C16.9207 5.5895 16.0409 4.98999 15.0678 4.58629C14.0946 4.18258 13.0488 3.9833 11.9954 4.00082C10.9387 3.98677 9.89034 4.18849 8.91436 4.59364C7.93838 4.9988 7.05534 5.59886 6.3193 6.3571C5.56885 7.09108 4.97617 7.97056 4.57756 8.94165C4.17896 9.91274 3.98282 10.955 4.00118 12.0045C3.98592 13.0568 4.1853 14.1011 4.58714 15.0738C4.98899 16.0464 5.58486 16.9269 6.33838 17.6615C7.07192 18.4165 7.95223 19.0134 8.92511 19.4153C9.898 19.8173 10.9429 20.0158 11.9954 19.9987C13.0479 20.0158 14.0928 19.8173 15.0657 19.4153C16.0386 19.0134 16.9189 18.4165 17.6524 17.6615C18.4059 16.9269 19.0018 16.0464 19.4037 15.0738C19.8055 14.1011 20.0049 13.0568 19.9896 12.0045C20.0067 10.952 19.8081 9.90718 19.4062 8.93429C19.0042 7.96141 18.4074 7.0811 17.6524 6.34756ZM11.9954 6.98672C12.4416 6.98577 12.8781 7.11717 13.2496 7.36429C13.6211 7.61141 13.9111 7.96316 14.0827 8.37505C14.2543 8.78694 14.3 9.24047 14.2138 9.6783C14.1277 10.1161 13.9137 10.5186 13.5988 10.8348C13.284 11.151 12.8824 11.3667 12.445 11.4547C12.0075 11.5426 11.5538 11.4989 11.1412 11.329C10.7286 11.1591 10.3756 10.8707 10.1269 10.5002C9.87821 10.1297 9.74497 9.69382 9.74402 9.2476C9.74368 8.64952 9.98046 8.0757 10.4025 7.6519C10.8245 7.2281 11.3973 6.9889 11.9954 6.98672ZM15.7445 16.4595H15.735C14.7082 17.368 13.3642 17.8342 11.9954 17.7569C10.6378 17.7617 9.31891 17.3041 8.2559 16.4595H8.2463C8.03381 16.2576 7.89281 15.992 7.84462 15.7029C7.79643 15.4138 7.84367 15.1168 7.9792 14.8569C8.39169 14.1742 8.98545 13.6192 9.69447 13.2538C10.4035 12.8883 11.2 12.7267 11.9954 12.7868C12.7906 12.7278 13.5867 12.89 14.2955 13.2553C15.0043 13.6207 15.5983 14.175 16.0116 14.8569C16.1471 15.1168 16.1944 15.4138 16.1462 15.7029C16.098 15.992 15.957 16.2576 15.7445 16.4595Z" fill="#222222"/>
</svg>
