<svg width="16" height="17" viewBox="0 0 16 17" fill="none" xmlns="http://www.w3.org/2000/svg">
<circle cx="8" cy="8.13379" r="8" fill="black" fill-opacity="0.25"/>
<path fill-rule="evenodd" clip-rule="evenodd" d="M10.3332 11.5983C10.6846 11.9498 11.2545 11.9498 11.6059 11.5983C11.9574 11.2469 11.9574 10.677 11.6059 10.3256L9.27251 7.99211L11.4646 5.80007C11.816 5.4486 11.816 4.87875 11.4646 4.52728C11.1131 4.17581 10.5432 4.17581 10.1918 4.52728L7.99972 6.71932L5.80767 4.52728C5.4562 4.1758 4.88635 4.1758 4.53488 4.52728C4.18341 4.87875 4.18341 5.4486 4.53488 5.80007L6.72693 7.99211L4.39349 10.3256C4.04201 10.677 4.04201 11.2469 4.39349 11.5983C4.74496 11.9498 5.31481 11.9498 5.66628 11.5983L7.99972 9.26491L10.3332 11.5983Z" fill="white"/>
</svg>
