<svg width="25" height="26" viewBox="0 0 25 26" fill="none" xmlns="http://www.w3.org/2000/svg">
<rect y="0.133789" width="25" height="25" rx="8" fill="#E9E9E9"/>
<path d="M9.25 16.8838H16.75C16.9 16.8838 17.0125 16.815 17.0875 16.6775C17.1625 16.54 17.15 16.4088 17.05 16.2838L14.9875 13.5275C14.9125 13.4275 14.8125 13.3775 14.6875 13.3775C14.5625 13.3775 14.4625 13.4275 14.3875 13.5275L12.4375 16.1338L11.05 14.2775C10.975 14.1775 10.875 14.1275 10.75 14.1275C10.625 14.1275 10.525 14.1775 10.45 14.2775L8.95 16.2838C8.85 16.4088 8.8375 16.54 8.9125 16.6775C8.9875 16.815 9.1 16.8838 9.25 16.8838ZM7.75 19.8838C7.3375 19.8838 6.98425 19.737 6.69025 19.4435C6.39675 19.1495 6.25 18.7963 6.25 18.3838V7.88379C6.25 7.47129 6.39675 7.11804 6.69025 6.82404C6.98425 6.53054 7.3375 6.38379 7.75 6.38379H18.25C18.6625 6.38379 19.0157 6.53054 19.3097 6.82404C19.6033 7.11804 19.75 7.47129 19.75 7.88379V18.3838C19.75 18.7963 19.6033 19.1495 19.3097 19.4435C19.0157 19.737 18.6625 19.8838 18.25 19.8838H7.75Z" fill="#EE0033"/>
</svg>
