<svg width="21" height="21" viewBox="0 0 21 21" fill="none" xmlns="http://www.w3.org/2000/svg">
<circle cx="10.5" cy="10.1338" r="10" fill="#EE0033"/>
<path d="M6.42262 9.92324L10.3024 5.86894C10.4893 5.67375 10.7111 5.51893 10.9552 5.41331C11.1993 5.3077 11.4609 5.25336 11.7251 5.25339C11.9893 5.25343 12.2509 5.30784 12.495 5.41352C12.739 5.5192 12.9608 5.67409 13.1476 5.86933C13.3344 6.06457 13.4825 6.29634 13.5836 6.55141C13.6847 6.80649 13.7367 7.07987 13.7366 7.35594C13.7366 7.63202 13.6845 7.90538 13.5834 8.16043C13.4823 8.41548 13.334 8.64721 13.1472 8.8424L8.49201 13.707C8.32041 13.8863 8.08768 13.987 7.845 13.987C7.60233 13.987 7.3696 13.8863 7.198 13.707C7.02641 13.5276 6.93 13.2844 6.93 13.0309C6.93 12.7773 7.02641 12.5341 7.198 12.3548L11.336 8.03063C11.4329 7.92195 11.4857 7.77821 11.4832 7.62969C11.4807 7.48117 11.4231 7.33946 11.3226 7.23443C11.2221 7.12939 11.0865 7.06922 10.9443 7.0666C10.8022 7.06398 10.6647 7.11911 10.5607 7.22038L6.42262 11.5445C6.04529 11.9388 5.8333 12.4736 5.8333 13.0312C5.8333 13.5889 6.04529 14.1237 6.42262 14.518C6.79996 14.9123 7.31174 15.1338 7.84537 15.1338C8.379 15.1338 8.89078 14.9123 9.26812 14.518L13.9226 9.65265C14.4944 9.04105 14.8124 8.21853 14.8076 7.36351C14.8029 6.50849 14.4757 5.6899 13.8971 5.08529C13.3186 4.48069 12.5352 4.13882 11.717 4.13384C10.8987 4.12887 10.1116 4.46117 9.52633 5.0587L5.64724 9.11223C5.55033 9.22091 5.49758 9.36465 5.50009 9.51317C5.50259 9.66169 5.56017 9.8034 5.66069 9.90843C5.7612 10.0135 5.89681 10.0736 6.03894 10.0763C6.18107 10.0789 6.31862 10.0237 6.42262 9.92248V9.92324Z" fill="white"/>
</svg>
