<svg width="607" height="452" viewBox="0 0 607 452" fill="none" xmlns="http://www.w3.org/2000/svg">
<g clip-path="url(#clip0_17992_168015)">
<path d="M606.739 397.218H0V397.521H606.739V397.218Z" fill="#EBEBEB"/>
<path d="M545.943 416.736H519.635V417.04H545.943V416.736Z" fill="#EBEBEB"/>
<path d="M418.249 410.44H376.858V410.744H418.249V410.44Z" fill="#EBEBEB"/>
<path d="M535.289 405.479H481.253V405.782H535.289V405.479Z" fill="#EBEBEB"/>
<path d="M209.956 411.593H196.438V411.896H209.956V411.593Z" fill="#EBEBEB"/>
<path d="M185.626 411.593H139.04V411.896H185.626V411.593Z" fill="#EBEBEB"/>
<path d="M114.079 406.474H80.4657V406.777H114.079V406.474Z" fill="#EBEBEB"/>
<path d="M287.594 343.115H53.2838C51.4482 343.112 49.6889 342.381 48.3921 341.082C47.0953 339.784 46.367 338.024 46.367 336.189V6.9266C46.367 5.09165 47.0953 3.33168 48.3921 2.03304C49.6889 0.734397 51.4482 0.00321357 53.2838 0L287.594 0C289.432 0 291.194 0.729765 292.494 2.02875C293.793 3.32774 294.523 5.08955 294.523 6.9266V336.189C294.523 337.098 294.344 337.999 293.996 338.839C293.647 339.68 293.137 340.443 292.494 341.087C291.85 341.73 291.086 342.24 290.246 342.588C289.405 342.936 288.504 343.115 287.594 343.115ZM53.2838 0.303266C51.5287 0.30648 49.8466 1.00571 48.6066 2.24748C47.3667 3.48925 46.6703 5.17208 46.6703 6.9266V336.189C46.6703 337.943 47.3667 339.626 48.6066 340.868C49.8466 342.11 51.5287 342.809 53.2838 342.812H287.594C289.35 342.809 291.034 342.11 292.276 340.869C293.517 339.627 294.217 337.944 294.22 336.189V6.9266C294.217 5.17097 293.517 3.48816 292.276 2.24674C291.034 1.00532 289.35 0.306473 287.594 0.303266H53.2838Z" fill="#EBEBEB"/>
<path d="M550.081 343.115H315.759C313.922 343.112 312.162 342.381 310.863 341.083C309.564 339.785 308.833 338.025 308.83 336.189V6.9266C308.833 5.09054 309.564 3.33059 310.863 2.0323C312.162 0.734002 313.922 0.0032071 315.759 0L550.081 0C551.915 0.0064198 553.671 0.739018 554.965 2.03731C556.259 3.33561 556.986 5.09375 556.986 6.9266V336.189C556.986 338.022 556.259 339.78 554.965 341.078C553.671 342.376 551.915 343.109 550.081 343.115ZM315.759 0.303266C314.003 0.306473 312.319 1.00532 311.077 2.24674C309.836 3.48816 309.137 5.17097 309.133 6.9266V336.189C309.137 337.944 309.836 339.627 311.077 340.869C312.319 342.11 314.003 342.809 315.759 342.812H550.081C551.838 342.809 553.521 342.11 554.763 340.869C556.005 339.627 556.704 337.944 556.707 336.189V6.9266C556.704 5.17097 556.005 3.48816 554.763 2.24674C553.521 1.00532 551.838 0.306473 550.081 0.303266H315.759Z" fill="#EBEBEB"/>
<path d="M262.196 177.023L262.742 161.071L252.962 157.88C252.539 152.499 251.662 147.163 250.34 141.929L258.641 135.863L253.01 120.785L242.744 121.61C240.31 116.787 237.468 112.181 234.25 107.841L239.565 98.9739L228.643 87.3164L219.47 92.011C215.341 88.4859 210.934 85.3013 206.291 82.4884L207.772 72.3108L193.21 65.6996L186.536 73.5238C181.387 71.8774 176.11 70.6602 170.761 69.8847L168.334 59.9011L152.34 59.3553L149.088 69.1447C143.689 69.569 138.336 70.4413 133.082 71.7528L126.918 63.4918L111.943 69.0355L112.768 79.298C107.946 81.7724 103.339 84.6452 98.9955 87.8865L90.1614 82.5733L78.4513 93.4909L83.1475 102.698C79.623 106.808 76.4564 111.211 73.6823 115.86L63.5013 114.331L56.8514 128.888L64.7147 135.56C63.0547 140.703 61.8368 145.979 61.0743 151.33L50.966 153.829L50.4443 169.829L60.2734 173.032C60.68 178.43 61.5529 183.784 62.8824 189.032L54.5822 195.097L60.2249 210.079L70.4909 209.242C72.9159 214.069 75.7581 218.676 78.9852 223.01L73.6581 231.889L84.5794 243.547L93.7533 238.84C97.8675 242.368 102.267 245.549 106.907 248.351L105.378 258.528L119.94 265.14L126.651 257.327C131.803 258.963 137.078 260.18 142.426 260.967L144.853 270.938L160.846 271.484L164.001 261.707C169.404 261.273 174.761 260.397 180.019 259.086L186.087 267.347L201.061 261.755L200.284 251.493C205.1 249.007 209.706 246.135 214.057 242.904L222.879 248.229L234.589 237.312L229.893 228.105C233.422 224.002 236.588 219.603 239.358 214.955L249.539 216.484L256.189 201.927L248.326 195.255C250.011 190.114 251.249 184.838 252.027 179.485L262.196 177.023ZM154.451 228.663C141.938 228.24 129.831 224.117 119.662 216.815C109.493 209.513 101.719 199.36 97.3228 187.64C92.9269 175.921 92.1067 163.161 94.966 150.976C97.8253 138.79 104.236 127.726 113.386 119.183C122.537 110.64 134.016 105.002 146.373 102.981C158.729 100.961 171.407 102.65 182.803 107.834C194.2 113.018 203.802 121.464 210.395 132.104C216.989 142.744 220.278 155.1 219.846 167.609C219.27 184.373 212.057 200.222 199.794 211.671C187.531 223.12 171.221 229.232 154.451 228.663Z" fill="#EBEBEB"/>
<path d="M535.143 124.303L539.16 120.554L537.57 117.388C538.766 115.957 539.838 114.428 540.774 112.815L544.293 113.349L546.562 108.327L543.868 106.022C544.449 104.25 544.875 102.432 545.143 100.587L548.601 99.7139L548.771 94.2066L545.397 93.1148C545.249 91.2536 544.949 89.4076 544.499 87.5954L547.351 85.4725L545.41 80.317L541.878 80.596C541.027 78.9333 540.04 77.3429 538.93 75.8408L540.762 72.8081L536.988 68.7686L533.833 70.3941C532.415 69.1769 530.897 68.0813 529.295 67.1189L529.804 63.6131L524.793 61.3204L522.487 64.0256C520.707 63.4716 518.885 63.0658 517.038 62.8125L516.177 59.3553L510.668 59.1612L509.563 62.5577C507.704 62.6937 505.86 62.9941 504.054 63.4554L501.943 60.5926L496.773 62.5214L497.065 66.0635C495.397 66.9064 493.805 67.8927 492.308 69.0112L489.25 67.1917L485.221 70.94L486.847 74.1182C485.623 75.5305 484.526 77.0488 483.571 78.6551L480.064 78.1214L477.782 83.1556L480.537 85.424C479.977 87.2015 479.571 89.0238 479.324 90.8707L475.853 91.732L475.683 97.2393L479.069 98.331C479.208 100.197 479.504 102.047 479.955 103.863L477.091 105.961L479.032 111.129L482.576 110.862C483.385 112.516 484.326 114.103 485.391 115.605L483.559 118.65L487.332 122.677L490.488 121.064C491.909 122.273 493.427 123.365 495.026 124.327L494.504 127.833L499.528 130.125L501.834 127.432C503.615 127.981 505.437 128.386 507.282 128.646L508.144 132.091L513.653 132.285L514.757 128.9C516.616 128.759 518.459 128.459 520.266 128.003L522.378 130.853L527.547 128.925L527.268 125.382C528.932 124.538 530.519 123.552 532.013 122.435L535.143 124.303ZM506.433 101.097C505.372 99.9629 504.671 98.5399 504.419 97.0078C504.167 95.4757 504.376 93.9033 505.018 92.4897C505.66 91.076 506.708 89.8846 508.028 89.0661C509.347 88.2476 510.88 87.8388 512.433 87.8914C513.985 87.944 515.487 88.4557 516.748 89.3618C518.009 90.2678 518.973 91.5274 519.518 92.9813C520.063 94.4352 520.165 96.0181 519.81 97.5296C519.455 99.0411 518.659 100.413 517.524 101.473C516.771 102.177 515.887 102.726 514.922 103.089C513.957 103.451 512.93 103.619 511.9 103.584C510.87 103.55 509.857 103.312 508.919 102.885C507.98 102.458 507.136 101.85 506.433 101.097Z" fill="#EBEBEB"/>
<path d="M388.313 287.957L375.765 279.296C374.538 274.779 372.846 270.401 370.717 266.231L373.933 253.615L355.731 234.121L342.917 236.475C338.896 234.051 334.639 232.044 330.211 230.482L322.421 217.369L295.724 216.447L287.06 228.99C282.533 230.253 278.146 231.973 273.967 234.121L261.347 230.907L241.858 249.103L244.2 261.889C241.789 265.913 239.805 270.178 238.278 274.614L225.161 282.401L224.251 309.089L236.81 317.762C238.022 322.302 239.71 326.702 241.846 330.888L238.642 343.467L256.845 362.949L269.574 360.62C273.622 363.031 277.908 365.019 282.364 366.552L290.142 379.641L316.839 380.55L325.491 368.02C330.044 366.79 334.46 365.099 338.669 362.973L351.217 366.176L370.717 347.98L368.375 335.194C370.789 331.167 372.774 326.898 374.297 322.457L387.415 314.669L388.313 287.957ZM305.25 328.461C299.323 328.259 293.589 326.304 288.774 322.844C283.958 319.383 280.277 314.573 278.196 309.022C276.115 303.47 275.728 297.426 277.083 291.655C278.439 285.883 281.475 280.643 285.81 276.596C290.144 272.55 295.582 269.88 301.435 268.923C307.287 267.965 313.292 268.765 318.691 271.22C324.089 273.674 328.638 277.674 331.762 282.714C334.886 287.753 336.445 293.605 336.242 299.53C335.967 307.476 332.546 314.987 326.732 320.413C320.918 325.838 313.187 328.733 305.238 328.461H305.25Z" fill="#EBEBEB"/>
<path d="M416.89 212.286H416.805L395.788 211.571C395.363 211.559 394.948 211.441 394.579 211.23C394.211 211.018 393.901 210.718 393.676 210.358L388.009 200.823C384.955 199.71 382 198.343 379.175 196.735L370.111 198.36C369.688 198.438 369.253 198.407 368.846 198.271C368.439 198.136 368.072 197.899 367.781 197.584L353.425 182.227C353.125 181.908 352.912 181.517 352.805 181.093C352.699 180.668 352.704 180.223 352.819 179.8L355.112 170.812C353.693 167.898 352.532 164.866 351.641 161.75L342.504 155.442C342.151 155.197 341.865 154.868 341.673 154.485C341.48 154.101 341.386 153.675 341.4 153.246L342.116 132.236C342.128 131.812 342.245 131.397 342.457 131.028C342.668 130.66 342.968 130.35 343.329 130.125L352.879 124.448C353.983 121.407 355.351 118.468 356.969 115.666L355.294 106.519C355.217 106.097 355.247 105.662 355.383 105.255C355.519 104.848 355.755 104.482 356.071 104.19L371.421 89.8881C371.74 89.5879 372.131 89.3746 372.555 89.2684C372.98 89.1622 373.425 89.1667 373.848 89.2816L382.876 91.5864C385.785 90.1665 388.809 88.9977 391.917 88.0928L398.227 78.9705C398.462 78.6077 398.789 78.3141 399.175 78.12C399.561 77.9259 399.992 77.8385 400.423 77.8666L421.429 78.5823C421.855 78.5967 422.271 78.7147 422.641 78.9261C423.011 79.1374 423.324 79.4358 423.552 79.7954L429.219 89.3422C432.249 90.4561 435.18 91.8236 437.98 93.4302L447.154 91.7562C447.577 91.6778 448.012 91.7079 448.419 91.8437C448.827 91.9795 449.193 92.2165 449.484 92.5326L463.791 107.963C464.091 108.282 464.305 108.672 464.411 109.097C464.517 109.521 464.513 109.966 464.398 110.389L462.092 119.414C463.514 122.321 464.683 125.345 465.587 128.451L474.712 134.65C475.067 134.893 475.354 135.222 475.547 135.606C475.74 135.99 475.833 136.416 475.817 136.846L475.101 157.856C475.086 158.282 474.968 158.698 474.757 159.068C474.545 159.438 474.247 159.75 473.887 159.979L464.337 165.644C463.228 168.683 461.86 171.622 460.248 174.427L461.922 183.573C462 183.995 461.969 184.43 461.833 184.837C461.697 185.245 461.461 185.611 461.146 185.902L445.783 200.241C445.467 200.546 445.077 200.764 444.652 200.872C444.226 200.981 443.779 200.976 443.356 200.859L434.425 198.579C431.499 199.993 428.458 201.158 425.336 202.06L419.038 211.182C418.797 211.527 418.475 211.808 418.101 212.001C417.727 212.193 417.311 212.291 416.89 212.286ZM397.365 206.5L415.567 207.119L421.635 198.385C421.978 197.883 422.491 197.521 423.079 197.366C426.495 196.442 429.809 195.174 432.969 193.581C433.518 193.309 434.147 193.245 434.74 193.399L443.235 195.57L456.583 183.136L455.054 174.427C454.936 173.814 455.048 173.179 455.37 172.643C457.172 169.635 458.656 166.448 459.799 163.133C459.995 162.538 460.4 162.034 460.939 161.714L470.077 156.291L470.696 138.095L461.959 132.03C461.501 131.713 461.157 131.258 460.976 130.732C460.976 130.671 460.976 130.599 460.976 130.526C460.049 127.15 458.781 123.878 457.19 120.761C456.909 120.206 456.84 119.567 456.996 118.965L459.18 110.377L446.645 97.0452L437.92 98.6464C437.309 98.7588 436.678 98.6422 436.148 98.3189C433.135 96.5223 429.947 95.0348 426.634 93.8791C426.444 93.814 426.261 93.7286 426.088 93.6243C425.735 93.4102 425.443 93.1095 425.239 92.7509L419.863 83.7015L401.661 83.0828L395.594 91.8169C395.233 92.3334 394.699 92.7035 394.089 92.8601C390.709 93.7833 387.432 95.0474 384.308 96.6327C383.758 96.9137 383.123 96.9827 382.524 96.8268L373.897 94.619L360.548 107.053L362.15 115.751C362.245 116.299 362.164 116.864 361.92 117.364L361.798 117.57C359.996 120.582 358.511 123.774 357.369 127.093C357.165 127.664 356.771 128.148 356.253 128.464L347.115 133.886L346.496 152.082L355.245 158.147C355.744 158.488 356.106 158.996 356.265 159.579C357.174 162.985 358.439 166.286 360.039 169.429C360.125 169.604 360.194 169.786 360.245 169.975C360.335 170.374 360.335 170.788 360.245 171.188L358.061 179.74L370.499 193.084L379.163 191.494C379.768 191.384 380.394 191.496 380.923 191.81C383.957 193.608 387.164 195.095 390.497 196.25C391.095 196.442 391.6 196.848 391.917 197.39L397.365 206.5ZM408.614 183.488H407.267C397.18 183.311 387.571 179.157 380.531 171.932C373.492 164.707 369.592 154.995 369.681 144.91C369.77 134.824 373.84 125.182 381.005 118.082C388.171 110.982 397.852 106.998 407.941 106.998C418.03 106.998 427.711 110.982 434.876 118.082C442.041 125.182 446.111 134.824 446.2 144.91C446.289 154.995 442.389 164.707 435.35 171.932C428.311 179.157 418.702 183.311 408.614 183.488ZM408.614 111.808C399.892 111.96 391.583 115.55 385.496 121.796C379.409 128.042 376.037 136.439 376.113 145.159C376.189 153.879 379.707 162.216 385.902 168.356C392.097 174.495 400.467 177.939 409.191 177.939C417.914 177.939 426.284 174.495 432.479 168.356C438.674 162.216 442.193 153.879 442.269 145.159C442.345 136.439 438.972 128.042 432.885 121.796C426.798 115.55 418.489 111.96 409.767 111.808H408.614Z" fill="#EBEBEB"/>
<path d="M465.296 61.1021L456.583 58.7608L454.253 50.0632L457.663 46.6545L461.255 54.1027L468.706 57.6934L465.296 61.1021Z" fill="#E0E0E0"/>
<path d="M465.83 55.2794C466.551 54.5102 466.945 53.4908 466.929 52.4365C466.913 51.3822 466.487 50.3756 465.742 49.6292C464.997 48.8829 463.991 48.4552 462.936 48.4366C461.881 48.418 460.861 48.8098 460.09 49.5294L464.422 43.0395L470.222 45.9752L471.497 52.0405L465.83 55.2794Z" fill="#E0E0E0"/>
<path d="M456.971 47.3095L463.354 40.9288L472.043 43.3064L474.385 52.0041L468.002 58.3848L459.301 56.0436L456.971 47.3095ZM468.56 52.5257C469.128 51.9572 469.515 51.2331 469.671 50.4449C469.828 49.6567 469.747 48.8399 469.439 48.0975C469.132 47.3552 468.611 46.7208 467.942 46.2744C467.274 45.8281 466.488 45.5899 465.684 45.5899C464.88 45.5899 464.095 45.8281 463.426 46.2744C462.758 46.7208 462.237 47.3552 461.929 48.0975C461.621 48.8399 461.54 49.6567 461.697 50.4449C461.853 51.2331 462.24 51.9572 462.808 52.5257C463.571 53.2847 464.601 53.7139 465.677 53.7208C466.753 53.7276 467.788 53.3114 468.56 52.5621V52.5257Z" fill="#F0F0F0"/>
<path d="M109.48 293.258L114.152 292.009L115.402 287.339L113.581 285.519L111.652 289.51L107.648 291.439L109.48 293.258Z" fill="#E0E0E0"/>
<path d="M109.213 290.141C108.988 289.944 108.806 289.703 108.678 289.433C108.55 289.163 108.479 288.869 108.469 288.57C108.459 288.272 108.51 287.974 108.62 287.696C108.73 287.418 108.896 287.165 109.107 286.954C109.319 286.743 109.571 286.577 109.849 286.467C110.128 286.357 110.425 286.306 110.724 286.316C111.023 286.326 111.317 286.397 111.587 286.525C111.857 286.653 112.098 286.835 112.295 287.06L109.977 283.578L106.786 285.143L106.106 288.418L109.213 290.141Z" fill="#E0E0E0"/>
<path d="M113.946 285.883L110.524 282.462L105.852 283.675L104.638 288.345L107.999 291.803L112.671 290.59L113.946 285.883ZM107.733 288.709C107.426 288.404 107.217 288.015 107.132 287.592C107.047 287.168 107.09 286.728 107.255 286.329C107.42 285.929 107.7 285.588 108.059 285.347C108.419 285.107 108.841 284.979 109.274 284.979C109.706 284.979 110.129 285.107 110.488 285.347C110.848 285.588 111.128 285.929 111.293 286.329C111.458 286.728 111.5 287.168 111.415 287.592C111.33 288.015 111.121 288.404 110.815 288.709C110.404 289.114 109.85 289.341 109.274 289.341C108.697 289.341 108.143 289.114 107.733 288.709Z" fill="#F0F0F0"/>
<path d="M92.6611 37.2532L96.5443 41.1229C96.7832 41.362 97.0669 41.5518 97.3793 41.6812C97.6916 41.8106 98.0264 41.8773 98.3645 41.8773C98.7026 41.8773 99.0374 41.8106 99.3497 41.6812C99.662 41.5518 99.9458 41.362 100.185 41.1229C100.662 40.6374 100.929 39.984 100.929 39.3033C100.929 38.6226 100.662 37.9692 100.185 37.4837L96.3137 33.6019C95.8266 33.1277 95.1735 32.8623 94.4935 32.8623C93.8135 32.8623 93.1604 33.1277 92.6733 33.6019C92.1936 34.0878 91.9237 34.7424 91.9214 35.4251C91.9191 36.1078 92.1847 36.7641 92.6611 37.2532Z" fill="#F0F0F0"/>
<path d="M89.9308 27.5972C90.6149 27.3221 91.3467 27.1852 92.084 27.1945C92.8213 27.2037 93.5494 27.3588 94.2264 27.651C94.9034 27.9431 95.5157 28.3664 96.0281 28.8964C96.5405 29.4265 96.9428 30.0527 97.2117 30.7391C97.6371 32.1496 97.5047 33.6696 96.8418 34.9855C96.1788 36.3013 95.0359 37.3125 93.6489 37.8105C92.2618 38.3085 90.7365 38.2552 89.3876 37.6617C88.0387 37.0682 86.9691 35.9797 86.3996 34.6209C85.9421 33.2213 86.0566 31.6976 86.718 30.382C87.3795 29.0663 88.5343 28.0654 89.9308 27.5972Z" fill="#E0E0E0"/>
<path d="M85.7024 33.9685L86.2645 35.5325L97.7989 31.3903L97.2369 29.8263L85.7024 33.9685Z" fill="#F0F0F0"/>
<path d="M303.369 452C433.311 452 538.65 445.852 538.65 438.268C538.65 430.684 433.311 424.536 303.369 424.536C173.427 424.536 68.0882 430.684 68.0882 438.268C68.0882 445.852 173.427 452 303.369 452Z" fill="#F5F5F5"/>
<path d="M105.233 79.6862C104.003 74.3487 104.545 69.8523 106.859 66.1969C109.173 62.5416 112.979 60.1154 118.278 58.9185C123.722 57.6812 128.252 58.1907 131.869 60.447C135.485 62.7033 137.912 66.4638 139.149 71.7285C140.006 74.948 140.077 78.3261 139.356 81.5786C138.636 84.2848 137.123 86.714 135.011 88.5537C132.533 90.6448 129.557 92.0612 126.372 92.666C123.249 93.4884 119.981 93.6003 116.809 92.9935C114.055 92.319 111.563 90.8412 109.65 88.7478C107.388 86.18 105.862 83.0493 105.233 79.6862ZM115.353 77.442C116.106 80.7416 117.258 82.9736 118.812 84.1382C119.614 84.6738 120.516 85.0413 121.464 85.2185C122.412 85.3957 123.386 85.3789 124.328 85.1691C125.269 84.9594 126.158 84.561 126.941 83.9981C127.724 83.4352 128.385 82.7194 128.883 81.894C129.757 80.2078 129.769 77.5391 128.944 73.8756C128.24 70.7944 127.1 68.6958 125.534 67.5556C124.744 66.9886 123.837 66.606 122.879 66.436C121.922 66.2659 120.938 66.3128 120.001 66.573C119.063 66.7486 118.177 67.1346 117.41 67.7019C116.643 68.2692 116.014 69.0031 115.572 69.8483C114.674 71.5708 114.589 74.1061 115.353 77.442Z" fill="#263238"/>
<path d="M143.906 75.6831C143.486 74.0409 143.414 72.3288 143.697 70.6573C143.979 68.9858 144.608 67.392 145.544 65.9786C146.605 64.4673 147.954 63.1803 149.514 62.1915C151.074 61.2027 152.814 60.5316 154.633 60.2165C159.382 59.1329 163.281 59.6949 166.331 61.9027C168.898 63.8917 170.643 66.7552 171.234 69.9475C171.825 73.1398 171.22 76.4378 169.535 79.2131C167.642 82.0921 164.56 84.0169 160.288 84.9873C156.996 85.8953 153.489 85.6117 150.386 84.1867C148.719 83.3703 147.266 82.1767 146.141 80.7006C145.016 79.2244 144.251 77.5065 143.906 75.6831ZM153.02 73.5966C153.25 75.2851 154.066 76.8391 155.325 77.9879C155.826 78.3725 156.406 78.6425 157.023 78.7787C157.64 78.915 158.28 78.9143 158.896 78.7767C159.513 78.639 160.092 78.3678 160.593 77.9821C161.093 77.5964 161.503 77.1056 161.793 76.5444C162.428 74.9192 162.488 73.1256 161.963 71.4616C161.708 69.8063 160.889 68.2896 159.645 67.1674C159.162 66.7762 158.596 66.5015 157.99 66.3648C157.384 66.228 156.754 66.2329 156.15 66.3789C155.52 66.5068 154.927 66.7778 154.418 67.1712C153.908 67.5645 153.497 68.0695 153.214 68.6473C152.572 70.2237 152.503 71.9749 153.02 73.5966Z" fill="#263238"/>
<path d="M180.298 89.2937L172.86 56.5409L181.354 54.6L182.155 58.1058C182.751 56.7058 183.622 55.4395 184.716 54.3817C185.913 53.3658 187.343 52.6616 188.878 52.3316C190.296 51.9458 191.789 51.9237 193.219 52.2671C194.648 52.6106 195.968 53.3086 197.057 54.2968C199.455 56.538 201.082 59.4808 201.704 62.7033C202.602 66.6458 202.335 69.8725 200.928 72.4078C200.26 73.6216 199.335 74.6749 198.218 75.4941C197.101 76.3134 195.818 76.8788 194.46 77.1509C193.153 77.4731 191.795 77.5268 190.467 77.3086C189.182 77.0997 187.957 76.6156 186.876 75.8893L189.448 87.2072L180.298 89.2937ZM184.679 66.4274C184.912 67.9597 185.693 69.3558 186.876 70.3578C187.341 70.7092 187.878 70.9526 188.449 71.0701C189.02 71.1876 189.61 71.1763 190.176 71.0371C190.702 70.9296 191.196 70.7002 191.618 70.3673C192.039 70.0345 192.377 69.6074 192.603 69.1204C193.116 67.6059 193.116 65.9646 192.603 64.4501C192.386 62.9163 191.649 61.5033 190.516 60.447C190.1 60.1015 189.61 59.8562 189.084 59.73C188.558 59.6038 188.01 59.6001 187.482 59.7192C186.925 59.8365 186.402 60.0787 185.952 60.4275C185.502 60.7763 185.138 61.2227 184.885 61.7329C184.277 63.227 184.204 64.8857 184.679 66.4274Z" fill="#263238"/>
<path d="M205.599 67.1431L214.434 64.2924C214.907 65.143 215.638 65.8223 216.521 66.2333C217.438 66.5441 218.427 66.5736 219.36 66.3182C220.404 66.1463 221.359 65.6244 222.066 64.8383C222.269 64.6248 222.415 64.365 222.494 64.0815C222.572 63.7981 222.579 63.4998 222.515 63.2128C222.429 62.8993 222.254 62.6177 222.01 62.4023C221.767 62.1869 221.466 62.047 221.144 61.9997C219.773 61.8493 218.389 61.8493 217.018 61.9997C214.716 62.1825 212.403 62.1825 210.101 61.9997C208.753 61.7995 207.49 61.2187 206.461 60.3257C205.375 59.4253 204.623 58.1865 204.325 56.8078C203.96 55.3484 204.119 53.8071 204.774 52.4529C205.489 51.0481 206.587 49.8746 207.941 49.0685C209.882 47.9796 211.983 47.2057 214.167 46.7758C216.255 46.2156 218.412 45.9542 220.574 45.9994C221.931 46.0911 223.246 46.5071 224.408 47.2125C225.642 48.0452 226.691 49.123 227.491 50.3786L218.996 53.1929C218.686 52.5558 218.156 52.0519 217.504 51.7736C216.62 51.453 215.66 51.4065 214.749 51.6402C213.949 51.7628 213.206 52.1316 212.626 52.6955C212.444 52.8938 212.313 53.1329 212.243 53.3926C212.173 53.6523 212.167 53.925 212.225 54.1876C212.292 54.4737 212.444 54.733 212.66 54.932C212.877 55.1309 213.148 55.2604 213.439 55.3036C214.795 55.461 216.167 55.4324 217.516 55.2187C219.856 54.8835 222.229 54.8468 224.578 55.1095C226.055 55.327 227.438 55.9674 228.558 56.9534C229.551 57.8398 230.25 59.0078 230.561 60.3014C230.872 61.7261 230.758 63.2109 230.233 64.5714C229.592 66.191 228.475 67.5783 227.029 68.5503C224.896 69.9313 222.514 70.8831 220.016 71.3525C215.72 72.3067 212.496 72.3795 210.344 71.5708C208.244 70.773 206.54 69.1832 205.599 67.1431Z" fill="#263238"/>
<path d="M235.233 37.1319H245.195V44.7742L243.363 60.1438H237.198L235.233 44.7985V37.1319ZM235.718 62.4728H245.013V70.6853L235.718 70.7459V62.4728Z" fill="#263238"/>
<path d="M156.15 141.48C156.078 141.497 156.004 141.497 155.932 141.48C150.471 139.369 147.207 137.307 145.508 134.82C144.178 135.072 142.803 134.885 141.589 134.286C140.167 133.591 138.987 132.483 138.203 131.108C137.791 131.424 137.306 131.631 136.792 131.709C136.279 131.788 135.754 131.735 135.266 131.557C133.771 130.998 132.495 129.973 131.626 128.633C131.077 129.027 130.406 129.212 129.733 129.155C126.092 128.864 121.239 121.683 120.887 114.028C120.883 113.868 120.942 113.713 121.051 113.595C121.159 113.478 121.309 113.407 121.469 113.397C121.549 113.394 121.628 113.407 121.703 113.434C121.778 113.462 121.847 113.504 121.905 113.558C121.964 113.612 122.011 113.677 122.045 113.749C122.078 113.822 122.097 113.9 122.1 113.98C122.44 121.258 127.087 127.724 129.842 127.942C130.043 127.963 130.247 127.943 130.44 127.885C130.634 127.827 130.814 127.731 130.971 127.602C130.021 125.875 129.425 123.976 129.217 122.017C129.008 120.057 129.192 118.075 129.757 116.187C130.801 112.548 131.723 111.117 132.839 111.335C134.927 111.857 134.647 119.827 133.543 125.031C133.376 125.969 133.03 126.867 132.524 127.675C133.243 128.871 134.322 129.809 135.606 130.356C135.949 130.486 136.322 130.516 136.682 130.441C137.041 130.365 137.371 130.189 137.633 129.931C136.686 127.59 136.419 124.388 137.778 120.3C139.477 114.926 140.205 114.78 140.581 114.695C140.723 114.666 140.87 114.675 141.006 114.722C141.143 114.769 141.265 114.852 141.358 114.962C142.487 116.175 141.14 124.57 139.732 128.706C139.57 129.2 139.341 129.669 139.052 130.101C139.696 131.419 140.759 132.485 142.074 133.134C142.932 133.555 143.887 133.739 144.841 133.668C144.731 133.437 144.634 133.195 144.537 132.964C143.579 130.356 144.052 127.348 145.981 123.769C147.255 121.343 148.299 120.288 149.27 120.288C149.528 120.291 149.779 120.368 149.994 120.51C150.209 120.652 150.379 120.853 150.483 121.088C151.539 123.041 150.775 129.483 148.687 132.673C148.207 133.414 147.525 134.003 146.722 134.371C148.348 136.506 151.442 138.399 156.429 140.303C156.509 140.317 156.585 140.347 156.653 140.391C156.721 140.435 156.78 140.491 156.826 140.558C156.873 140.624 156.905 140.699 156.923 140.778C156.94 140.857 156.941 140.939 156.927 141.019C156.913 141.098 156.883 141.174 156.839 141.243C156.795 141.311 156.738 141.37 156.672 141.416C156.605 141.462 156.531 141.495 156.451 141.512C156.372 141.529 156.291 141.53 156.211 141.516L156.15 141.48ZM149.258 121.501C149.258 121.501 148.566 121.501 147.037 124.351C145.278 127.602 144.829 130.283 145.666 132.539C145.77 132.818 145.891 133.089 146.03 133.352C146.685 133.077 147.243 132.612 147.632 132.018C149.331 129.422 150.144 124.084 149.513 121.998C149.428 121.573 149.258 121.501 149.258 121.501ZM140.581 116.454C139.924 117.835 139.381 119.267 138.955 120.736C138.025 123.278 137.865 126.037 138.494 128.67L138.603 128.367C139.864 124.519 140.531 120.502 140.581 116.454ZM132.597 112.633C132.39 112.815 131.796 113.579 130.958 116.539C129.968 119.861 130.281 123.435 131.832 126.535C132.081 125.992 132.264 125.422 132.378 124.836C133.64 118.88 133.276 113.434 132.597 112.572V112.633Z" fill="#263238"/>
<path d="M202.287 205.008C200.348 205.03 198.438 204.536 196.753 203.577C196.615 203.493 196.514 203.359 196.473 203.203C196.433 203.046 196.455 202.88 196.535 202.74C196.574 202.67 196.626 202.609 196.689 202.561C196.752 202.512 196.824 202.476 196.901 202.456C196.978 202.435 197.058 202.431 197.137 202.442C197.216 202.453 197.292 202.48 197.36 202.521C201.692 205.069 207.286 203.298 208.439 201.442C208.522 201.325 208.58 201.193 208.612 201.053C208.643 200.914 208.646 200.77 208.621 200.629C206.405 200.751 204.212 200.122 202.396 198.846C199.302 196.917 199.059 196.347 199.083 195.886C199.089 195.753 199.13 195.625 199.203 195.514C199.276 195.403 199.377 195.313 199.496 195.255C200.709 194.636 206.182 197.159 208.463 198.664C208.74 198.841 208.992 199.053 209.216 199.294C210.115 199.092 210.925 198.602 211.521 197.899C211.862 197.508 212.107 197.043 212.237 196.541H211.995C210.053 196.735 208.111 195.898 206.036 193.981C204.604 192.671 204.058 191.761 204.24 191.046C204.296 190.844 204.408 190.661 204.562 190.52C204.717 190.378 204.908 190.283 205.114 190.245C206.789 189.832 210.939 191.591 212.626 193.447C213.002 193.856 213.269 194.352 213.402 194.891C214.992 194.139 216.666 192.465 218.644 189.711C218.69 189.646 218.749 189.59 218.817 189.547C218.884 189.504 218.96 189.475 219.039 189.461C219.118 189.448 219.199 189.45 219.277 189.468C219.355 189.486 219.429 189.519 219.494 189.566C219.624 189.66 219.712 189.802 219.739 189.961C219.766 190.119 219.73 190.282 219.639 190.415C217.346 193.617 215.429 195.425 213.511 196.165C213.414 197.062 213.046 197.908 212.456 198.591C211.757 199.406 210.839 200.004 209.81 200.313C209.868 200.603 209.868 200.901 209.809 201.19C209.751 201.48 209.636 201.755 209.47 202C208.451 203.795 205.515 205.008 202.287 205.008ZM201.207 196.601C201.619 196.905 202.202 197.305 203.039 197.814C204.346 198.69 205.844 199.239 207.408 199.416C205.452 198.262 203.372 197.334 201.207 196.65V196.601ZM205.442 191.446C205.79 192.102 206.274 192.677 206.862 193.132C208.657 194.794 210.296 195.558 211.873 195.364L212.261 195.303C212.172 194.931 211.988 194.589 211.728 194.309C210.029 192.489 206.291 191.3 205.442 191.494V191.446Z" fill="#263238"/>
<path d="M218.353 203.395L199.447 206.828L182.276 113.167L145.799 119.79L86.3389 225.327L92.7218 260.154L168.989 246.252L174.207 274.747L210.684 268.112L205.466 239.629L224.372 236.196L218.353 203.395ZM122.67 220.778L154.221 165.498L162.97 213.499L122.67 220.778Z" fill="#EE0033"/>
<path d="M370.632 106.75C370.058 100.861 368.754 95.0667 366.749 89.4999C364.69 84.1661 361.825 79.1792 358.255 74.7127C354.032 69.5142 348.786 65.237 342.844 62.1453C336.372 58.587 327.789 56.1123 317.094 54.7214C294.887 51.8343 277.583 55.7727 265.181 66.5366C252.779 77.3005 244.609 97.9226 240.669 128.403C239.096 139.795 238.689 151.318 239.455 162.793C240.264 173.307 242.198 181.77 245.256 188.183C249.136 196.878 255.29 204.367 263.07 209.86C270.731 215.238 281.248 218.796 294.62 220.535C318.388 223.633 336.012 219.067 347.491 206.84C358.971 194.612 366.575 173.949 370.305 144.852C371.96 132.212 372.07 119.417 370.632 106.75Z" fill="#EE0033"/>
<path d="M305.517 208.016C302.593 207.919 299.45 207.652 296.283 207.24C285.167 205.784 276.576 202.982 270.727 198.882C264.893 194.76 260.282 189.14 257.379 182.615L257.318 182.493C254.988 177.641 253.459 170.666 252.792 161.871C252.084 151.307 252.459 140.699 253.908 130.21C258.252 96.5478 267.196 82.4884 273.93 76.6657C281.794 69.8483 292.412 66.7671 306.367 67.2523C309.23 67.3494 312.264 67.6041 315.383 68.0044C324.338 69.2175 331.437 71.1584 336.461 73.8999C340.799 76.1345 344.641 79.2206 347.758 82.9736C350.477 86.3732 352.666 90.1645 354.25 94.2187C355.863 98.7465 356.906 103.457 357.357 108.242C358.656 119.846 358.538 131.566 357.005 143.142C353.644 169.271 347.139 187.625 337.686 197.73C330.673 205.214 320.152 208.647 305.517 208.101V208.016Z" fill="#263238"/>
<path d="M329.265 107.15L329.423 102.565L326.595 101.643C326.476 100.084 326.224 98.5374 325.843 97.0209L328.27 95.262L326.607 90.9798L323.647 91.2225C322.953 89.833 322.141 88.5058 321.22 87.2557L322.785 84.6598L319.569 81.2753L316.924 82.6218C315.74 81.6084 314.474 80.6954 313.138 79.8924L313.563 76.9568L309.364 75.0523L307.447 77.2965C305.962 76.8195 304.44 76.4665 302.896 76.2411L302.156 73.3783L297.545 73.2206L296.635 76.047C295.079 76.1655 293.536 76.4171 292.023 76.7991L290.24 74.373L285.92 75.9864L286.162 78.9462C284.777 79.647 283.45 80.4584 282.194 81.3724L279.646 79.8439L276.272 82.9858L277.632 85.6424C276.611 86.8206 275.697 88.0872 274.901 89.4271L271.965 88.9904L270.047 93.1876L272.316 95.1043C271.825 96.5857 271.468 98.1081 271.249 99.6533L268.361 100.381L268.179 105.064L271.006 105.985C271.124 107.541 271.376 109.083 271.758 110.595L269.331 112.366L270.957 116.685L273.918 116.442C274.61 117.832 275.422 119.16 276.345 120.409L274.804 122.968L277.959 126.329L280.605 124.97C281.788 125.987 283.055 126.904 284.391 127.711L283.954 130.647L288.152 132.552L290.082 130.295C291.569 130.783 293.095 131.141 294.644 131.363L295.36 134.238L299.96 134.395L300.87 131.581C302.429 131.457 303.975 131.205 305.493 130.829L307.252 133.255L311.572 131.642L311.342 128.682C312.73 127.985 314.057 127.174 315.31 126.256L317.858 127.796L321.232 124.655L319.885 121.998C320.966 120.794 321.937 119.495 322.785 118.116L325.722 118.553L327.639 114.356L325.382 112.439C325.866 110.952 326.219 109.426 326.438 107.878L329.265 107.15ZM298.2 122.046C294.606 121.915 291.131 120.722 288.214 118.619C285.298 116.515 283.07 113.595 281.812 110.227C280.554 106.858 280.323 103.193 281.147 99.6935C281.971 96.1938 283.813 93.0166 286.442 90.5629C289.071 88.1092 292.368 86.489 295.917 85.9068C299.466 85.3246 303.108 85.8065 306.383 87.2916C309.659 88.7768 312.421 91.1986 314.32 94.2515C316.22 97.3043 317.172 100.851 317.057 104.445C316.887 109.277 314.805 113.844 311.27 117.144C307.735 120.444 303.034 122.207 298.2 122.046Z" fill="#EE0033"/>
<path opacity="0.3" d="M348.414 191.555L348.753 188.462L346.885 187.697C346.881 186.645 346.792 185.594 346.618 184.556L348.304 183.476L347.443 180.48H345.428C345.028 179.506 344.545 178.569 343.984 177.678L345.125 176.028L343.184 173.602L341.327 174.366C340.571 173.629 339.76 172.952 338.9 172.34L339.349 170.375L336.619 168.871L335.187 170.314C334.214 169.908 333.206 169.587 332.177 169.356L331.838 167.379L328.743 167.027L327.979 168.883C326.925 168.9 325.874 168.997 324.836 169.174L323.756 167.464L320.758 168.337V170.363C319.786 170.766 318.848 171.249 317.955 171.806L316.305 170.593L313.878 172.546L314.655 174.402C313.915 175.155 313.237 175.966 312.628 176.828L310.662 176.392L309.17 179.121L310.602 180.54C310.195 181.517 309.874 182.528 309.643 183.561L307.653 183.888L307.325 186.982L309.182 187.758C309.184 188.808 309.277 189.855 309.461 190.888L307.75 191.967L308.624 194.964H310.65C311.058 195.932 311.545 196.866 312.106 197.754L310.893 199.404L312.834 201.83L314.715 201.041C315.468 201.781 316.28 202.458 317.142 203.067L316.693 205.032L319.424 206.536L320.843 205.105C321.82 205.501 322.826 205.817 323.853 206.051L324.205 208.028L327.299 208.38L328.051 206.524C329.109 206.506 330.164 206.409 331.207 206.233L332.286 207.944L335.272 207.058V205.044C336.247 204.639 337.188 204.156 338.087 203.601L339.713 204.814L342.14 202.861L341.351 201.005C342.099 200.252 342.785 199.441 343.402 198.579L345.356 199.015L346.86 196.286L345.428 194.867C345.819 193.894 346.131 192.892 346.363 191.87L348.414 191.555ZM332.796 190.342C332.29 191.289 331.514 192.065 330.566 192.569C329.618 193.074 328.541 193.285 327.472 193.176C326.403 193.067 325.391 192.643 324.565 191.957C323.738 191.271 323.135 190.355 322.831 189.325C322.527 188.295 322.536 187.198 322.858 186.173C323.18 185.149 323.799 184.243 324.638 183.572C325.476 182.9 326.495 182.494 327.566 182.403C328.636 182.313 329.709 182.542 330.648 183.064C331.891 183.755 332.812 184.906 333.214 186.27C333.615 187.633 333.466 189.1 332.796 190.354V190.342Z" fill="#EE0033"/>
<path d="M365.609 139.139L361.968 136.64C361.61 135.341 361.122 134.081 360.512 132.879L361.434 129.24L356.192 123.623L352.552 124.303C351.399 123.61 350.18 123.037 348.911 122.592L346.666 118.808L338.985 118.541L336.485 122.18C335.186 122.534 333.926 123.017 332.723 123.623L329.083 122.701L323.465 127.942L324.144 131.581C323.45 132.732 322.876 133.951 322.433 135.22L318.659 137.464L318.392 145.143L322.033 147.642C322.385 148.951 322.873 150.219 323.489 151.427L322.567 155.066L327.809 160.683L331.449 160.003C332.6 160.699 333.82 161.272 335.09 161.714L337.322 165.486L345.016 165.741L347.504 162.102C348.814 161.741 350.086 161.253 351.302 160.646L354.942 161.568L360.561 156.316L359.893 152.676C360.586 151.525 361.159 150.305 361.604 149.037L365.378 146.793L365.609 139.139ZM341.667 150.808C339.959 150.75 338.307 150.186 336.919 149.189C335.532 148.191 334.471 146.805 333.872 145.205C333.273 143.606 333.161 141.864 333.552 140.201C333.943 138.538 334.818 137.028 336.068 135.862C337.317 134.697 338.884 133.928 340.57 133.652C342.257 133.377 343.987 133.608 345.543 134.315C347.098 135.023 348.408 136.176 349.308 137.628C350.208 139.081 350.657 140.767 350.598 142.474C350.516 144.762 349.529 146.924 347.855 148.486C346.181 150.049 343.956 150.884 341.667 150.808Z" fill="white"/>
<path d="M391.953 77.8424L392.584 76.326C393.015 76.0926 393.422 75.8163 393.798 75.5012H395.205L396.856 73.075L396.322 71.777C396.531 71.3214 396.693 70.8459 396.807 70.3578L398.021 69.2296L397.511 66.391L395.982 65.7602C395.746 65.309 395.465 64.8824 395.145 64.4865V63.0794L392.778 61.4296L391.468 61.9634C390.987 61.8044 390.491 61.6946 389.987 61.6358L388.871 60.4228L386.031 60.9322L385.388 62.4486C384.938 62.6861 384.511 62.9664 384.114 63.2856L382.719 63.2249L381.068 65.6511L381.602 66.9369C381.441 67.422 381.327 67.9217 381.262 68.429L380.049 69.5571L380.559 72.3957L382.088 73.0265C382.315 73.4799 382.592 73.907 382.913 74.3002V75.7074L385.34 77.3571L386.638 76.8113C387.122 76.9787 387.622 77.0926 388.131 77.1509L389.247 78.364L391.953 77.8424ZM385.886 69.9696C385.773 69.3366 385.851 68.6846 386.11 68.0959C386.368 67.5072 386.795 67.0082 387.337 66.6621C387.879 66.3159 388.511 66.1382 389.154 66.1512C389.797 66.1643 390.422 66.3676 390.949 66.7354C391.476 67.1033 391.883 67.6191 392.117 68.2178C392.351 68.8165 392.402 69.4712 392.264 70.0991C392.126 70.7269 391.805 71.2998 391.342 71.7453C390.878 72.1908 390.293 72.4889 389.66 72.6019C389.239 72.677 388.808 72.6685 388.39 72.5769C387.973 72.4852 387.577 72.3122 387.227 72.0677C386.877 71.8232 386.578 71.5121 386.348 71.1521C386.117 70.7921 385.961 70.3902 385.886 69.9696Z" fill="#EE0033"/>
<path d="M358.716 69.7997L357.782 69.0112C359.788 66.5321 362.262 64.4713 365.063 62.9459L365.633 64.0255C362.967 65.4733 360.616 67.436 358.716 69.7997Z" fill="#EE0033"/>
<path d="M368.4 62.8974L367.926 61.7814C372.407 59.8347 377.307 59.0503 382.173 59.5008L382.051 60.7139C377.389 60.2687 372.69 61.0202 368.4 62.8974Z" fill="#EE0033"/>
<path d="M366.106 71.2918L365.111 70.6004C368.039 66.6608 372.293 63.9121 377.088 62.861L377.319 64.0741C372.834 65.0531 368.853 67.6157 366.106 71.2918Z" fill="#EE0033"/>
<path d="M285.58 188.025C285.416 188.025 285.259 187.959 285.143 187.843L282.607 185.223C281.313 185.102 280.034 184.862 278.784 184.507L274.816 186.266C274.729 186.314 274.631 186.339 274.531 186.339C274.431 186.339 274.333 186.314 274.246 186.266L267.596 181.863C267.511 181.805 267.442 181.727 267.395 181.636C267.349 181.545 267.326 181.443 267.329 181.341V177.023C266.517 176.008 265.802 174.919 265.193 173.772L261.783 172.449C261.689 172.414 261.605 172.356 261.539 172.28C261.473 172.203 261.428 172.111 261.407 172.013L259.83 164.2C259.808 164.101 259.812 163.997 259.842 163.899C259.871 163.801 259.926 163.713 260 163.642L262.621 161.107C262.745 159.816 262.98 158.537 263.325 157.286L261.577 153.319C261.529 153.23 261.504 153.13 261.504 153.028C261.504 152.927 261.529 152.827 261.577 152.737L265.982 146.102C266.038 146.014 266.115 145.943 266.207 145.894C266.298 145.845 266.4 145.821 266.504 145.823L270.824 145.895C271.839 145.08 272.928 144.361 274.076 143.748L275.399 140.352C275.434 140.257 275.492 140.173 275.568 140.107C275.645 140.041 275.737 139.996 275.836 139.976L283.65 138.386C283.75 138.368 283.853 138.373 283.95 138.403C284.047 138.433 284.136 138.485 284.209 138.556L286.745 141.176C288.042 141.299 289.325 141.538 290.579 141.892L294.535 140.145C294.625 140.098 294.725 140.073 294.826 140.073C294.928 140.073 295.028 140.098 295.118 140.145L301.755 144.549C301.841 144.604 301.911 144.679 301.96 144.768C302.009 144.857 302.034 144.957 302.035 145.058L301.962 149.389C302.774 150.401 303.493 151.485 304.11 152.628L307.507 153.95C307.603 153.987 307.687 154.048 307.753 154.126C307.819 154.205 307.864 154.298 307.883 154.399L309.473 162.211C309.491 162.311 309.485 162.413 309.455 162.51C309.426 162.607 309.374 162.696 309.303 162.769L306.67 165.304C306.548 166.596 306.313 167.875 305.966 169.125L307.714 173.092C307.761 173.18 307.786 173.278 307.786 173.377C307.786 173.477 307.761 173.575 307.714 173.662L303.369 180.31C303.312 180.392 303.236 180.46 303.147 180.506C303.059 180.553 302.96 180.577 302.86 180.577L298.528 180.516C297.512 181.321 296.428 182.035 295.288 182.651L293.965 186.06C293.927 186.155 293.866 186.239 293.788 186.304C293.709 186.37 293.616 186.415 293.516 186.436L285.701 188.013L285.58 188.025ZM278.748 183.258H278.918C280.228 183.639 281.574 183.887 282.934 183.998C283.082 184.009 283.22 184.074 283.323 184.18L285.75 186.727L292.909 185.271L294.195 181.96C294.252 181.823 294.355 181.711 294.487 181.644C295.696 181.013 296.839 180.261 297.897 179.4C297.949 179.349 298.012 179.311 298.082 179.288C298.151 179.265 298.225 179.257 298.297 179.267L302.508 179.327L306.537 173.262L304.838 169.392C304.788 169.259 304.788 169.113 304.838 168.98C305.215 167.669 305.463 166.324 305.578 164.965C305.595 164.819 305.659 164.683 305.76 164.576L308.308 162.15L306.864 154.993L303.551 153.707C303.411 153.652 303.295 153.549 303.224 153.416C302.597 152.205 301.844 151.062 300.979 150.008C300.894 149.896 300.847 149.76 300.845 149.619V145.398L294.778 141.371L290.931 143.069C290.793 143.112 290.645 143.112 290.506 143.069C289.192 142.685 287.842 142.433 286.478 142.317C286.33 142.305 286.192 142.241 286.089 142.135L283.662 139.599L276.503 141.043L275.229 144.355C275.177 144.49 275.078 144.603 274.95 144.67C273.735 145.304 272.588 146.06 271.528 146.926C271.419 147.017 271.281 147.064 271.139 147.06H266.929L262.888 153.125L264.587 156.983C264.625 157.062 264.645 157.149 264.645 157.237C264.645 157.326 264.625 157.413 264.587 157.492C264.228 158.777 263.992 160.093 263.883 161.423C263.873 161.567 263.808 161.702 263.701 161.799L261.152 164.225L262.609 171.382L265.909 172.668C266.056 172.724 266.177 172.832 266.249 172.971C266.872 174.178 267.62 175.317 268.482 176.367C268.574 176.475 268.622 176.614 268.615 176.756V180.965L274.683 185.004L278.542 183.306C278.607 183.279 278.677 183.263 278.748 183.258ZM284.706 179.339C281.785 179.337 278.92 178.543 276.414 177.043C273.908 175.542 271.856 173.391 270.476 170.818C269.096 168.245 268.439 165.346 268.575 162.429C268.711 159.512 269.635 156.687 271.249 154.253C272.792 151.919 274.916 150.024 277.411 148.756C279.907 147.487 282.689 146.888 285.485 147.016C288.282 147.145 290.997 147.996 293.366 149.488C295.735 150.98 297.675 153.061 298.998 155.527C300.321 157.994 300.982 160.761 300.914 163.559C300.847 166.357 300.054 169.089 298.614 171.489C297.173 173.889 295.134 175.874 292.697 177.25C290.259 178.626 287.506 179.346 284.706 179.339ZM272.268 154.92C270.636 157.385 269.772 160.278 269.785 163.233C269.798 166.189 270.687 169.074 272.34 171.524C273.993 173.975 276.335 175.88 279.071 177C281.808 178.119 284.814 178.403 287.711 177.814C290.609 177.226 293.266 175.792 295.348 173.694C297.431 171.596 298.844 168.928 299.409 166.027C299.974 163.126 299.667 160.122 298.525 157.396C297.383 154.67 295.458 152.344 292.994 150.711C291.36 149.617 289.525 148.857 287.595 148.477C285.666 148.096 283.68 148.101 281.752 148.493C279.825 148.884 277.994 149.654 276.366 150.757C274.738 151.861 273.345 153.276 272.268 154.92Z" fill="white"/>
<path d="M516.735 214.349L497.684 211.777L510.279 117.388L473.535 112.427L384.405 194.466L379.721 229.56L456.522 239.92L452.688 268.621L489.432 273.582L493.266 244.881L512.318 247.453L516.735 214.349ZM420.361 201.369L467.395 158.511L460.939 206.84L420.361 201.369Z" fill="#EE0033"/>
<path d="M478.268 272.685H478.11C477.953 272.655 477.813 272.565 477.722 272.433C477.631 272.301 477.596 272.139 477.625 271.981L506.02 116.782C506.052 116.626 506.144 116.488 506.275 116.398C506.406 116.308 506.567 116.271 506.724 116.297C506.881 116.326 507.021 116.417 507.112 116.548C507.203 116.68 507.238 116.843 507.209 117L478.862 272.187C478.839 272.328 478.767 272.455 478.657 272.546C478.548 272.638 478.41 272.687 478.268 272.685Z" fill="#263238"/>
<path d="M503.387 119.39C503.382 119.52 503.352 119.649 503.297 119.768C503.243 119.887 503.166 119.994 503.07 120.083C502.974 120.172 502.862 120.241 502.739 120.287C502.616 120.332 502.486 120.353 502.355 120.348C502.092 120.339 501.842 120.224 501.662 120.031C501.483 119.838 501.387 119.581 501.397 119.317C501.406 119.053 501.521 118.804 501.714 118.624C501.907 118.445 502.164 118.349 502.428 118.359C502.559 118.363 502.687 118.394 502.806 118.448C502.925 118.503 503.032 118.58 503.121 118.676C503.21 118.771 503.28 118.884 503.325 119.006C503.371 119.129 503.392 119.259 503.387 119.39Z" fill="#263238"/>
<path d="M499.346 140.376C499.339 140.572 499.273 140.762 499.158 140.922C499.043 141.081 498.883 141.203 498.698 141.271C498.514 141.34 498.313 141.352 498.122 141.307C497.93 141.261 497.757 141.16 497.623 141.016C497.489 140.872 497.401 140.691 497.369 140.497C497.338 140.303 497.365 140.104 497.447 139.925C497.529 139.746 497.662 139.596 497.829 139.492C497.996 139.389 498.191 139.338 498.387 139.345C498.65 139.357 498.898 139.472 499.077 139.665C499.256 139.858 499.353 140.113 499.346 140.376Z" fill="#263238"/>
<path d="M495.305 161.338C495.298 161.534 495.232 161.724 495.117 161.883C495.002 162.043 494.842 162.164 494.657 162.233C494.473 162.301 494.272 162.314 494.081 162.268C493.889 162.223 493.716 162.122 493.582 161.978C493.448 161.834 493.36 161.653 493.328 161.459C493.297 161.265 493.324 161.066 493.406 160.887C493.488 160.708 493.621 160.557 493.788 160.454C493.956 160.351 494.15 160.299 494.346 160.306C494.477 160.311 494.606 160.342 494.725 160.396C494.844 160.45 494.951 160.528 495.04 160.623C495.129 160.719 495.198 160.832 495.243 160.954C495.289 161.077 495.31 161.207 495.305 161.338Z" fill="#263238"/>
<path d="M487.345 183.173C487.337 183.369 487.272 183.559 487.157 183.719C487.041 183.878 486.881 184 486.697 184.068C486.512 184.137 486.312 184.149 486.12 184.104C485.929 184.058 485.755 183.957 485.621 183.813C485.487 183.669 485.399 183.488 485.368 183.294C485.337 183.1 485.364 182.901 485.445 182.722C485.527 182.543 485.66 182.393 485.828 182.289C485.995 182.186 486.189 182.135 486.386 182.142C486.517 182.146 486.645 182.177 486.764 182.231C486.883 182.285 486.99 182.363 487.079 182.459C487.168 182.554 487.237 182.667 487.283 182.789C487.329 182.912 487.349 183.042 487.345 183.173Z" fill="#263238"/>
<path d="M487.211 203.334C487.206 203.465 487.176 203.593 487.121 203.712C487.067 203.831 486.99 203.938 486.894 204.027C486.798 204.116 486.686 204.185 486.563 204.23C486.441 204.276 486.31 204.297 486.18 204.292C486.049 204.287 485.921 204.257 485.802 204.203C485.683 204.148 485.576 204.071 485.487 203.975C485.398 203.879 485.328 203.767 485.283 203.645C485.237 203.522 485.216 203.392 485.221 203.261C485.226 203.13 485.256 203.002 485.311 202.883C485.365 202.764 485.443 202.657 485.538 202.568C485.634 202.479 485.746 202.41 485.869 202.365C485.992 202.319 486.122 202.298 486.253 202.303C486.383 202.308 486.512 202.338 486.631 202.392C486.749 202.447 486.856 202.524 486.945 202.62C487.034 202.716 487.104 202.828 487.149 202.95C487.195 203.073 487.216 203.203 487.211 203.334Z" fill="#263238"/>
<path d="M483.17 224.32C483.163 224.516 483.098 224.706 482.982 224.866C482.867 225.025 482.707 225.147 482.523 225.215C482.338 225.284 482.138 225.296 481.946 225.251C481.755 225.205 481.581 225.104 481.447 224.96C481.313 224.816 481.225 224.635 481.194 224.441C481.162 224.247 481.189 224.048 481.271 223.869C481.353 223.69 481.486 223.54 481.653 223.436C481.821 223.333 482.015 223.282 482.212 223.289C482.342 223.294 482.471 223.324 482.59 223.378C482.709 223.433 482.816 223.51 482.905 223.606C482.994 223.701 483.063 223.814 483.109 223.936C483.154 224.059 483.175 224.189 483.17 224.32Z" fill="#263238"/>
<path d="M479.129 245.306C479.125 245.437 479.094 245.565 479.04 245.684C478.986 245.803 478.908 245.91 478.812 245.999C478.717 246.088 478.604 246.157 478.482 246.203C478.359 246.248 478.229 246.269 478.098 246.264C477.968 246.261 477.84 246.232 477.721 246.179C477.602 246.126 477.495 246.05 477.406 245.955C477.316 245.86 477.247 245.749 477.201 245.627C477.155 245.505 477.134 245.375 477.139 245.245C477.142 245.114 477.172 244.984 477.225 244.864C477.279 244.743 477.356 244.635 477.452 244.545C477.548 244.454 477.661 244.384 477.784 244.338C477.908 244.291 478.039 244.27 478.171 244.275C478.434 244.287 478.681 244.402 478.86 244.595C479.039 244.788 479.136 245.043 479.129 245.306Z" fill="#263238"/>
<path d="M475.076 266.292C475.071 266.489 475.008 266.68 474.894 266.841C474.78 267.002 474.621 267.126 474.437 267.196C474.252 267.267 474.051 267.281 473.859 267.237C473.667 267.192 473.492 267.092 473.357 266.949C473.222 266.805 473.132 266.624 473.1 266.43C473.068 266.235 473.094 266.035 473.176 265.856C473.257 265.676 473.39 265.525 473.558 265.421C473.726 265.317 473.921 265.266 474.118 265.273C474.248 265.274 474.377 265.302 474.497 265.355C474.617 265.407 474.724 265.483 474.814 265.579C474.903 265.674 474.973 265.786 475.018 265.909C475.063 266.031 475.083 266.162 475.076 266.292Z" fill="#263238"/>
<path d="M486.35 183.779C486.213 183.779 486.08 183.732 485.974 183.646C485.868 183.56 485.795 183.44 485.767 183.306C485.749 183.228 485.747 183.147 485.761 183.068C485.774 182.989 485.803 182.914 485.846 182.846C485.889 182.779 485.945 182.72 486.01 182.674C486.076 182.628 486.15 182.596 486.228 182.578L489.238 181.935C489.317 181.919 489.4 181.918 489.48 181.933C489.56 181.948 489.636 181.979 489.704 182.023C489.772 182.068 489.831 182.125 489.877 182.192C489.923 182.259 489.955 182.335 489.972 182.415C489.989 182.494 489.989 182.576 489.974 182.656C489.959 182.736 489.929 182.813 489.884 182.881C489.84 182.949 489.782 183.008 489.715 183.054C489.648 183.1 489.572 183.132 489.493 183.149L486.483 183.791L486.35 183.779Z" fill="#263238"/>
<path d="M496.409 172.607C494.978 176.318 493.762 180.109 492.769 183.961C491.859 188.243 491.81 197.814 491.81 197.814" fill="#263238"/>
<path d="M491.81 198.421C491.649 198.421 491.495 198.357 491.381 198.243C491.267 198.13 491.204 197.975 491.204 197.814C491.204 197.426 491.276 188.11 492.186 183.828C493.175 179.947 494.391 176.127 495.827 172.389C495.884 172.24 495.998 172.119 496.143 172.053C496.288 171.988 496.454 171.982 496.603 172.037C496.679 172.065 496.748 172.108 496.806 172.163C496.865 172.218 496.912 172.284 496.944 172.358C496.977 172.431 496.995 172.51 496.997 172.59C496.999 172.671 496.985 172.751 496.955 172.825C495.527 176.505 494.311 180.263 493.315 184.083C492.429 188.268 492.368 197.73 492.356 197.827C492.357 197.976 492.301 198.12 492.2 198.231C492.098 198.341 491.959 198.409 491.81 198.421Z" fill="#263238"/>
<path d="M269.938 303.133C271.625 275.96 268.53 226.552 319.63 233.09C374.394 240.102 358.728 304.127 358.728 304.127L269.938 303.133Z" fill="#263238"/>
<path d="M305.202 286.805C317.52 286.805 327.505 276.823 327.505 264.509C327.505 252.195 317.52 242.213 305.202 242.213C292.884 242.213 282.898 252.195 282.898 264.509C282.898 276.823 292.884 286.805 305.202 286.805Z" fill="white"/>
<path d="M308.138 242.249C297.569 240.442 286.296 248.229 285.167 256.114L327.044 259.96C325.564 250.971 316.511 243.68 308.138 242.249Z" fill="#263238"/>
<path d="M322.275 263.951C321.972 269.773 318.793 274.347 315.176 274.165C311.56 273.983 308.866 269.106 309.109 263.247C309.352 257.388 312.592 252.839 316.208 253.021C319.824 253.203 322.567 258.128 322.275 263.951Z" fill="#263238"/>
<path d="M305.202 288.006C300.55 288.006 296.003 286.627 292.135 284.043C288.267 281.459 285.253 277.787 283.473 273.49C281.694 269.194 281.229 264.466 282.137 259.906C283.046 255.345 285.287 251.156 288.577 247.869C291.867 244.581 296.058 242.343 300.621 241.438C305.184 240.532 309.913 240.999 314.21 242.78C318.507 244.562 322.179 247.577 324.761 251.444C327.344 255.312 328.721 259.859 328.719 264.509C328.712 270.741 326.232 276.715 321.823 281.121C317.414 285.526 311.436 288.003 305.202 288.006ZM305.202 243.426C301.03 243.426 296.953 244.662 293.485 246.979C290.016 249.295 287.313 252.588 285.717 256.441C284.121 260.293 283.703 264.532 284.517 268.622C285.33 272.712 287.339 276.468 290.289 279.417C293.238 282.365 296.996 284.373 301.087 285.187C305.178 286 309.419 285.583 313.273 283.987C317.126 282.391 320.42 279.689 322.738 276.222C325.055 272.755 326.292 268.679 326.292 264.509C326.286 258.919 324.061 253.56 320.108 249.608C316.154 245.655 310.793 243.432 305.202 243.426Z" fill="#EE0033"/>
<path opacity="0.3" d="M352.503 302.441H352.357C352.279 302.424 352.206 302.392 352.141 302.345C352.075 302.299 352.02 302.241 351.978 302.173C351.937 302.105 351.909 302.029 351.897 301.95C351.885 301.871 351.889 301.791 351.908 301.713C351.908 301.544 355.816 285.094 351.799 268.463C351.762 268.302 351.791 268.133 351.878 267.994C351.966 267.854 352.105 267.754 352.266 267.717C352.427 267.68 352.596 267.709 352.736 267.796C352.876 267.884 352.976 268.023 353.013 268.184C357.102 285.167 353.158 301.823 353.122 301.992C353.088 302.128 353.007 302.247 352.894 302.329C352.781 302.412 352.643 302.451 352.503 302.441Z" fill="white"/>
<path opacity="0.3" d="M349.117 259.365C348.999 259.364 348.884 259.329 348.785 259.265C348.686 259.2 348.608 259.109 348.559 259.001C347.048 255.674 345.115 252.555 342.807 249.721C342.704 249.596 342.655 249.435 342.671 249.273C342.687 249.112 342.767 248.963 342.892 248.86C343.018 248.757 343.179 248.708 343.341 248.724C343.502 248.74 343.651 248.82 343.754 248.945C346.124 251.866 348.11 255.079 349.664 258.504C349.698 258.576 349.718 258.653 349.722 258.733C349.726 258.812 349.714 258.891 349.687 258.966C349.66 259.04 349.618 259.109 349.564 259.167C349.51 259.225 349.445 259.272 349.372 259.305C349.292 259.342 349.206 259.362 349.117 259.365Z" fill="white"/>
<path d="M156.211 430.638H155.762C154.153 430.593 152.627 429.911 151.521 428.741C150.415 427.572 149.819 426.011 149.864 424.403C149.91 422.794 150.592 421.269 151.762 420.164C152.931 419.058 154.493 418.462 156.102 418.507H156.211C159.718 418.507 168.152 414.249 185.796 386.446C186.264 385.708 186.886 385.079 187.62 384.604C188.354 384.128 189.183 383.817 190.048 383.691C190.914 383.566 191.796 383.629 192.635 383.876C193.474 384.123 194.25 384.549 194.909 385.124C208.76 397.035 223.872 407.395 239.977 416.021C241.403 416.753 242.481 418.02 242.976 419.544C243.47 421.069 243.341 422.727 242.616 424.157C241.892 425.586 240.631 426.671 239.108 427.174C237.586 427.677 235.927 427.557 234.492 426.841C219.527 418.891 205.382 409.484 192.263 398.759C177.471 420.933 166.501 430.638 156.211 430.638Z" fill="#263238"/>
<path d="M193.756 383.996H193.234C192.761 383.927 192.306 383.766 191.894 383.522C191.483 383.278 191.124 382.955 190.838 382.572C190.552 382.189 190.344 381.753 190.226 381.29C190.108 380.826 190.083 380.344 190.152 379.871C191.013 373.806 189.946 351.219 182.289 333.629C181.949 332.852 181.892 331.98 182.126 331.165C182.361 330.35 182.874 329.643 183.575 329.165C200.2 317.847 235.609 316.489 237.113 316.44C237.592 316.424 238.068 316.502 238.516 316.671C238.964 316.839 239.374 317.093 239.723 317.42C240.073 317.747 240.354 318.139 240.552 318.574C240.749 319.01 240.859 319.48 240.875 319.958C240.891 320.436 240.813 320.912 240.645 321.36C240.476 321.807 240.222 322.218 239.895 322.567C239.568 322.916 239.176 323.197 238.74 323.395C238.304 323.593 237.834 323.702 237.356 323.718C237.029 323.718 206.073 324.931 190.176 333.666C196.947 351.182 198.489 373.017 197.36 380.975C197.214 381.823 196.771 382.592 196.111 383.145C195.452 383.698 194.617 384 193.756 383.996Z" fill="#263238"/>
<path d="M199.872 379.277C197.445 373.575 186.524 374.218 180.129 379.107C176.707 381.727 172.071 389.6 171.634 392.451C171.488 393.13 171.509 393.836 171.697 394.505C171.884 395.175 172.232 395.789 172.709 396.294C173.187 396.799 173.781 397.181 174.44 397.405C175.098 397.629 175.801 397.69 176.488 397.582C180.675 397.23 186.414 391.153 186.414 391.153C182.592 394.889 187.531 397.533 194.909 392.123C198.937 389.115 202.578 385.67 199.872 379.277Z" fill="#EE0033"/>
<path d="M408.59 304.734H408.42C408.343 304.713 408.27 304.677 408.207 304.627C408.144 304.578 408.092 304.516 408.053 304.446C408.015 304.376 407.991 304.298 407.983 304.219C407.975 304.139 407.983 304.058 408.007 303.982C409.621 298.353 411.381 294.92 413.699 293.064C413.335 291.76 413.404 290.373 413.893 289.11C414.455 287.634 415.454 286.364 416.757 285.471C416.403 285.086 416.152 284.619 416.027 284.113C415.902 283.606 415.907 283.076 416.041 282.571C416.478 281.054 417.387 279.715 418.638 278.75C418.187 278.247 417.941 277.594 417.946 276.918C417.946 273.279 424.632 267.796 432.216 266.753C432.296 266.739 432.377 266.742 432.455 266.761C432.533 266.781 432.607 266.816 432.671 266.865C432.734 266.914 432.787 266.976 432.826 267.046C432.865 267.117 432.889 267.194 432.896 267.275C432.917 267.432 432.875 267.591 432.78 267.718C432.685 267.845 432.543 267.93 432.386 267.954C425.178 268.936 419.135 274.153 419.159 276.906C419.155 277.314 419.312 277.706 419.596 277.998C421.231 276.897 423.068 276.13 425.001 275.743C426.934 275.355 428.924 275.355 430.857 275.742C434.583 276.457 436.099 277.246 435.93 278.374C435.59 280.497 427.666 280.934 422.351 280.303C421.4 280.22 420.473 279.956 419.62 279.526C418.476 280.341 417.625 281.502 417.193 282.838C417.087 283.19 417.087 283.565 417.193 283.916C417.298 284.268 417.506 284.581 417.788 284.815C420.045 283.663 423.212 283.178 427.399 284.1C432.896 285.313 433.102 285.98 433.236 286.38C433.279 286.52 433.282 286.668 433.246 286.81C433.209 286.951 433.135 287.08 433.029 287.181C431.877 288.394 423.443 287.836 419.208 286.793C418.697 286.676 418.203 286.493 417.74 286.247C416.486 287.008 415.521 288.165 414.997 289.534C414.646 290.42 414.549 291.386 414.718 292.324C414.934 292.191 415.157 292.07 415.385 291.96C417.897 290.747 420.931 290.978 424.681 292.579C427.108 293.634 428.321 294.581 428.442 295.539C428.446 295.785 428.384 296.027 428.263 296.24C428.141 296.454 427.964 296.63 427.751 296.752C425.894 297.965 419.414 297.795 416.041 296C415.265 295.579 414.619 294.954 414.172 294.192C412.194 296 410.592 299.251 409.136 304.334C409.094 304.446 409.02 304.544 408.923 304.615C408.826 304.686 408.71 304.728 408.59 304.734ZM415.167 293.416C415.507 294.039 416.021 294.549 416.647 294.884C419.39 296.352 424.778 296.679 426.792 295.866C427.205 295.697 427.265 295.563 427.265 295.563C427.265 295.563 427.205 294.872 424.232 293.61C420.834 292.154 418.164 291.948 415.944 292.979C415.673 293.104 415.414 293.25 415.167 293.416ZM419.22 285.446L419.523 285.531C423.475 286.439 427.542 286.742 431.585 286.429C430.147 285.909 428.67 285.504 427.168 285.216C424.554 284.505 421.788 284.585 419.22 285.446ZM420.749 278.629C421.312 278.819 421.894 278.949 422.484 279.017C428.552 279.733 433.879 278.884 434.619 278.131C434.413 277.95 433.6 277.428 430.59 276.846C427.202 276.174 423.686 276.811 420.749 278.629Z" fill="#263238"/>
<path d="M250.619 428.576C251.42 428.309 251.153 427.545 250.255 427.545H233.825C202.542 424.233 180.687 428.673 194.46 429.716C208.233 430.759 193.489 430.541 183.429 434.35C173.37 438.159 258.24 439.105 265.946 434.35C273.032 429.959 239.528 432.118 250.619 428.576Z" fill="#263238"/>
<path d="M368.254 433.416L225.306 428.673L219.372 290.117L388.179 293.889L368.254 433.416Z" fill="#EE0033"/>
<path d="M269.938 430.759C269.786 430.757 269.64 430.699 269.528 430.596C269.416 430.493 269.346 430.353 269.331 430.201L257.876 291.038C257.869 290.959 257.879 290.879 257.903 290.802C257.928 290.726 257.967 290.656 258.019 290.595C258.071 290.534 258.134 290.484 258.205 290.448C258.277 290.411 258.355 290.39 258.434 290.383C258.595 290.373 258.753 290.426 258.875 290.53C258.997 290.634 259.074 290.782 259.09 290.941L270.605 430.104C270.612 430.184 270.603 430.264 270.578 430.34C270.554 430.416 270.515 430.487 270.463 430.548C270.411 430.609 270.347 430.659 270.276 430.695C270.205 430.731 270.127 430.753 270.047 430.759H269.938Z" fill="#263238"/>
<path d="M368.254 433.416L406.673 427.557L418.771 298.729L388.179 293.889L368.254 433.416Z" fill="#EE0033"/>
<path opacity="0.2" d="M368.254 433.416L406.673 427.557L418.771 298.729L388.179 293.889L368.254 433.416Z" fill="black"/>
<path d="M237.514 401.961L233.995 319.643C233.908 317.609 234.24 315.579 234.969 313.678C235.698 311.777 236.81 310.046 238.235 308.592C239.66 307.138 241.368 305.991 243.254 305.223C245.14 304.455 247.164 304.082 249.2 304.127L356.059 306.554C358.163 306.601 360.233 307.094 362.133 308C364.032 308.906 365.718 310.204 367.079 311.808C368.44 313.413 369.446 315.288 370.029 317.31C370.612 319.331 370.76 321.454 370.463 323.536L358.619 406.498C358.093 410.118 356.252 413.417 353.448 415.767C350.643 418.116 347.071 419.351 343.414 419.235L251.93 416.202C248.172 416.086 244.598 414.554 241.924 411.912C239.25 409.271 237.675 405.716 237.514 401.961Z" fill="#263238"/>
<path d="M249.066 329.396L265.594 329.917L265.46 334.175L255.109 333.848L255.012 337.026L264.611 337.329L264.477 341.393L254.879 341.09L254.757 345.02L265.4 345.36L265.254 349.884L248.423 349.363L249.066 329.396Z" fill="white"/>
<path d="M268.664 349.993L269.295 330.039L279.585 330.366C281.06 330.362 282.527 330.57 283.942 330.985C284.942 331.328 285.797 331.999 286.369 332.889C286.79 333.537 287.074 334.265 287.202 335.027C287.33 335.789 287.3 336.569 287.114 337.319C286.927 338.069 286.588 338.773 286.117 339.386C285.647 339.999 285.055 340.509 284.378 340.883C283.69 341.239 282.948 341.481 282.182 341.599C282.745 341.789 283.28 342.054 283.772 342.388C284.126 342.711 284.444 343.073 284.718 343.467C285.034 343.864 285.311 344.29 285.543 344.741L288.347 350.612L281.381 350.394L278.275 344.195C278.035 343.6 277.671 343.062 277.207 342.618C276.776 342.293 276.253 342.115 275.714 342.108H275.168L274.913 350.212L268.664 349.993ZM275.241 338.324L277.886 338.445C278.438 338.424 278.987 338.351 279.525 338.227C279.931 338.165 280.299 337.953 280.556 337.632C280.818 337.309 280.968 336.908 280.981 336.492C281.005 336.215 280.966 335.935 280.867 335.675C280.768 335.415 280.612 335.18 280.41 334.988C279.737 334.542 278.934 334.333 278.129 334.393L275.411 334.308L275.241 338.324Z" fill="white"/>
<path d="M290.361 350.685L290.992 330.73L301.27 331.045C302.745 331.043 304.213 331.255 305.626 331.676C306.629 332.016 307.485 332.688 308.053 333.581C308.668 334.549 308.957 335.688 308.879 336.832C308.884 337.802 308.627 338.755 308.133 339.591C307.639 340.426 306.928 341.112 306.075 341.575C305.384 341.923 304.643 342.165 303.879 342.29C304.44 342.475 304.972 342.741 305.457 343.079C305.819 343.398 306.141 343.761 306.415 344.159C306.734 344.553 307.01 344.98 307.24 345.432L310.043 351.304L303.078 351.085L299.972 344.886C299.727 344.293 299.364 343.757 298.904 343.309C298.47 342.982 297.942 342.803 297.399 342.8H296.865L296.598 350.903L290.361 350.685ZM296.926 339.003L299.535 339.088C300.086 339.067 300.635 338.994 301.173 338.87C301.575 338.805 301.938 338.593 302.192 338.275C302.464 337.957 302.615 337.553 302.617 337.135C302.643 336.858 302.607 336.579 302.51 336.319C302.413 336.058 302.259 335.823 302.059 335.631C301.382 335.182 300.575 334.973 299.765 335.036L297.059 334.951L296.926 339.003Z" fill="white"/>
<path d="M311.039 341.369C310.943 339.975 311.157 338.579 311.667 337.278C312.176 335.978 312.968 334.807 313.984 333.85C315.001 332.893 316.218 332.173 317.547 331.742C318.876 331.312 320.283 331.182 321.669 331.361C323.066 331.314 324.459 331.549 325.764 332.052C327.069 332.554 328.259 333.313 329.265 334.284C330.162 335.315 330.84 336.518 331.257 337.819C331.675 339.121 331.822 340.493 331.692 341.854C331.703 343.836 331.237 345.791 330.333 347.555C329.516 349.003 328.293 350.18 326.814 350.94C325.071 351.766 323.145 352.134 321.22 352.007C319.3 352.023 317.4 351.609 315.662 350.794C314.182 349.991 312.974 348.767 312.191 347.276C311.274 345.449 310.875 343.406 311.039 341.369ZM317.203 341.587C317.022 343.116 317.369 344.661 318.186 345.966C318.568 346.394 319.033 346.74 319.553 346.983C320.073 347.227 320.636 347.363 321.21 347.383C321.783 347.403 322.355 347.308 322.89 347.102C323.426 346.896 323.914 346.584 324.326 346.184C325.229 344.824 325.656 343.203 325.54 341.575C325.703 340.116 325.346 338.647 324.532 337.426C324.17 336.991 323.718 336.64 323.207 336.397C322.695 336.154 322.138 336.025 321.572 336.019C321.005 335.975 320.436 336.062 319.908 336.272C319.38 336.483 318.907 336.811 318.526 337.232C317.589 338.484 317.121 340.025 317.203 341.587Z" fill="white"/>
<path d="M334.811 352.092L335.442 332.137L345.72 332.465C347.195 332.456 348.664 332.669 350.076 333.095C351.077 333.431 351.933 334.099 352.503 334.988C353.117 335.96 353.406 337.103 353.328 338.251C353.332 339.219 353.073 340.17 352.58 341.003C352.086 341.836 351.376 342.52 350.525 342.982C349.834 343.335 349.094 343.58 348.329 343.71C348.89 343.894 349.422 344.16 349.906 344.498C350.272 344.814 350.594 345.177 350.865 345.578C351.177 345.955 351.454 346.362 351.69 346.791L354.493 352.674L347.528 352.444L344.421 346.245C344.17 345.656 343.808 345.12 343.353 344.668C342.915 344.351 342.39 344.173 341.849 344.159H341.315L341.048 352.262L334.811 352.092ZM341.376 340.422L343.984 340.507C344.535 340.474 345.083 340.401 345.623 340.289C346.025 340.224 346.388 340.012 346.642 339.694C346.915 339.372 347.065 338.964 347.067 338.542C347.092 338.266 347.055 337.987 346.959 337.727C346.862 337.466 346.708 337.231 346.508 337.038C345.826 336.605 345.022 336.401 344.215 336.456L341.509 336.359L341.376 340.422Z" fill="white"/>
<path d="M344.628 386.009C344.4 386.014 344.174 385.969 343.965 385.879C343.755 385.789 343.568 385.656 343.414 385.488L333.027 374.121L321.814 384.36C321.504 384.644 321.093 384.794 320.672 384.775C320.251 384.757 319.854 384.573 319.569 384.262L309.182 372.896L297.969 383.134C297.816 383.276 297.635 383.386 297.438 383.457C297.242 383.528 297.033 383.56 296.824 383.549C296.615 383.539 296.41 383.488 296.222 383.398C296.033 383.308 295.864 383.181 295.724 383.025L285.325 371.659L274.125 381.897C273.971 382.041 273.791 382.153 273.593 382.227C273.396 382.3 273.186 382.333 272.976 382.324C272.765 382.315 272.559 382.264 272.368 382.174C272.178 382.084 272.008 381.957 271.867 381.8L261.48 370.434L250.28 380.672C250.125 380.813 249.944 380.922 249.748 380.993C249.551 381.064 249.342 381.096 249.133 381.086C248.924 381.077 248.719 381.026 248.529 380.937C248.34 380.848 248.17 380.723 248.029 380.569C247.888 380.414 247.778 380.233 247.707 380.037C247.636 379.84 247.605 379.631 247.614 379.422C247.624 379.213 247.674 379.008 247.763 378.819C247.852 378.629 247.977 378.459 248.132 378.318L260.509 367.013C260.822 366.727 261.235 366.578 261.658 366.596C262.081 366.614 262.479 366.799 262.766 367.11L273.154 378.476L284.354 368.238C284.668 367.956 285.081 367.808 285.503 367.826C285.925 367.844 286.323 368.027 286.611 368.335L296.999 379.701L308.211 369.463C308.365 369.321 308.545 369.212 308.742 369.141C308.939 369.069 309.148 369.038 309.356 369.048C309.565 369.058 309.77 369.11 309.959 369.2C310.148 369.29 310.317 369.416 310.456 369.572L320.843 380.939L332.056 370.7C332.209 370.558 332.389 370.448 332.585 370.375C332.781 370.303 332.99 370.27 333.199 370.279C333.408 370.288 333.613 370.339 333.802 370.428C333.991 370.517 334.161 370.642 334.301 370.797L345.841 383.328C346.048 383.56 346.184 383.847 346.231 384.154C346.278 384.461 346.234 384.776 346.105 385.059C345.977 385.342 345.769 385.581 345.506 385.748C345.244 385.914 344.938 386.001 344.628 385.997V386.009Z" fill="white"/>
<path d="M152.595 436.351L144.998 432.737L138.227 399.778L141.904 395.738L152.595 436.351Z" fill="#EE0033"/>
<path d="M152.595 436.351L162.679 430.468L154.039 403.32L141.904 395.738L152.595 436.351Z" fill="#EE0033"/>
<path opacity="0.2" d="M152.595 436.351L162.679 430.468L154.039 403.32L141.904 395.738L152.595 436.351Z" fill="black"/>
<path d="M317.931 442.344H317.094C315.485 442.301 313.959 441.62 312.851 440.452C311.744 439.284 311.147 437.724 311.19 436.115C311.234 434.506 311.915 432.981 313.083 431.874C314.252 430.767 315.812 430.17 317.421 430.213C326.765 430.517 346.545 424.779 357.854 413.813C358.537 413.143 359.369 412.644 360.281 412.357C379.442 406.607 386.565 418.216 386.857 418.714L376.421 424.888C376.457 424.965 376.502 425.039 376.554 425.106C376.445 424.949 373.727 421.467 365.087 423.602C350.901 436.546 329.131 442.344 317.931 442.344Z" fill="#263238"/>
<path d="M317.191 450.411L295.093 449.016L293.358 408.293L323.052 409.397L317.191 450.411Z" fill="#EE0033"/>
<path d="M317.191 450.411L322.36 445.268L325.564 419.878L323.052 409.397L317.191 450.411Z" fill="#EE0033"/>
<path opacity="0.2" d="M317.191 450.411L322.36 445.268L325.564 419.878L323.052 409.397L317.191 450.411Z" fill="black"/>
<path d="M445.237 434.981C444.443 434.986 443.67 434.726 443.041 434.241C430.42 424.658 413.371 407.65 406.83 391.238C406.732 390.996 406.663 390.743 406.624 390.485C403.433 371.525 400.387 331.603 400.253 329.917C400.218 329.439 400.276 328.959 400.426 328.504C400.576 328.048 400.814 327.627 401.127 327.264C401.439 326.901 401.82 326.603 402.248 326.387C402.676 326.171 403.143 326.041 403.621 326.005C404.099 325.969 404.579 326.028 405.035 326.178C405.49 326.327 405.912 326.565 406.275 326.878C406.638 327.191 406.937 327.572 407.153 327.999C407.369 328.427 407.498 328.893 407.534 329.371C407.534 329.772 410.653 370.082 413.759 388.896C420.288 404.848 438.029 421.237 447.47 428.454C448.073 428.917 448.516 429.556 448.737 430.283C448.958 431.01 448.946 431.788 448.702 432.508C448.458 433.227 447.996 433.853 447.379 434.296C446.762 434.74 446.021 434.979 445.261 434.981H445.237Z" fill="#263238"/>
<path d="M462.068 436.825C459.253 436.825 456.061 435.551 452.578 433.04C452.19 432.759 451.861 432.405 451.61 431.998C451.359 431.59 451.191 431.138 451.115 430.665C450.961 429.711 451.193 428.734 451.759 427.951C452.326 427.168 453.18 426.641 454.135 426.488C455.09 426.334 456.066 426.566 456.85 427.132C459.859 429.316 461.498 429.558 462.068 429.558C463.033 429.558 463.959 429.942 464.642 430.624C465.325 431.307 465.708 432.232 465.708 433.197C465.708 434.163 465.325 435.088 464.642 435.771C463.959 436.453 463.033 436.837 462.068 436.837V436.825Z" fill="#263238"/>
<path d="M453.598 432.931C457.493 421.358 473.462 423.651 478.972 425.361C483.676 426.735 488.19 428.696 492.405 431.196C495.378 433.137 495.426 436.388 491.458 438.244C486.604 440.537 474.276 438.511 474.276 438.511C480.634 441.289 474.276 445.789 463.099 441.374C459.471 439.942 452.227 437.164 453.598 432.931Z" fill="#EE0033"/>
<path d="M414.839 334.903C413.395 344.741 405.253 351.983 398.627 351.012C392.002 350.042 391.735 341.308 393.179 331.434C394.623 321.559 397.244 314.451 403.87 315.421C410.495 316.391 416.283 325.101 414.839 334.903Z" fill="#263238"/>
<path d="M254.685 295.672C255.234 295.672 255.68 295.227 255.68 294.678C255.68 294.128 255.234 293.683 254.685 293.683C254.135 293.683 253.69 294.128 253.69 294.678C253.69 295.227 254.135 295.672 254.685 295.672Z" fill="#263238"/>
<path d="M264.793 301.847C264.793 302.044 264.735 302.236 264.625 302.4C264.516 302.563 264.36 302.691 264.179 302.766C263.997 302.841 263.797 302.861 263.604 302.822C263.411 302.784 263.233 302.689 263.094 302.55C262.955 302.411 262.86 302.234 262.822 302.041C262.784 301.848 262.803 301.648 262.879 301.466C262.954 301.284 263.081 301.129 263.245 301.02C263.409 300.91 263.601 300.852 263.798 300.852C264.062 300.852 264.315 300.957 264.501 301.143C264.688 301.33 264.793 301.583 264.793 301.847Z" fill="#263238"/>
<path d="M265.897 419.393C265.897 419.59 265.838 419.783 265.729 419.947C265.619 420.111 265.463 420.238 265.28 420.313C265.098 420.388 264.897 420.407 264.703 420.367C264.51 420.328 264.333 420.232 264.194 420.092C264.056 419.952 263.962 419.773 263.925 419.579C263.888 419.386 263.909 419.185 263.986 419.004C264.064 418.822 264.193 418.668 264.358 418.56C264.523 418.452 264.717 418.396 264.914 418.398C265.176 418.401 265.426 418.508 265.61 418.694C265.794 418.88 265.897 419.131 265.897 419.393Z" fill="#263238"/>
<path d="M275.023 426.55C275.023 426.747 274.964 426.939 274.855 427.103C274.745 427.266 274.59 427.394 274.408 427.469C274.226 427.544 274.026 427.564 273.833 427.525C273.64 427.487 273.463 427.392 273.324 427.253C273.185 427.114 273.09 426.937 273.052 426.744C273.013 426.551 273.033 426.351 273.108 426.169C273.183 425.987 273.311 425.832 273.475 425.723C273.638 425.614 273.831 425.555 274.027 425.555C274.291 425.555 274.544 425.66 274.731 425.847C274.918 426.033 275.023 426.286 275.023 426.55Z" fill="#263238"/>
<path d="M100.124 438.487C98.3728 438.394 96.6645 437.911 95.1251 437.071C93.5857 436.231 92.2544 435.057 91.2292 433.634C91.1383 433.502 91.1027 433.339 91.1299 433.18C91.1571 433.022 91.2449 432.88 91.3749 432.785C91.4408 432.739 91.5152 432.707 91.5938 432.69C91.6724 432.673 91.7535 432.672 91.8326 432.686C91.9116 432.701 91.9869 432.731 92.0542 432.775C92.1214 432.819 92.1792 432.876 92.2243 432.943C94.4935 436.206 99.5052 437.953 101.689 436.922C101.908 436.829 102.103 436.688 102.26 436.509C101.156 436.024 100.189 435.274 99.444 434.326C98.6991 433.378 98.1991 432.262 97.9883 431.075C97.7092 429.534 97.4908 427.436 98.7528 427.169C100.5 426.78 102.782 430.99 103.607 434.18C103.757 434.708 103.811 435.259 103.764 435.806C104.466 436.008 105.2 436.066 105.924 435.975C106.251 435.95 106.568 435.858 106.856 435.703C107.145 435.548 107.398 435.336 107.599 435.078C106.802 434.474 106.14 433.71 105.657 432.834C105.174 431.959 104.881 430.991 104.796 429.995C104.335 426.671 104.687 426.101 105.051 425.81C105.169 425.72 105.309 425.664 105.456 425.647C105.603 425.629 105.753 425.652 105.888 425.713C107.186 426.271 108.752 430.978 109.055 433.634C109.092 433.916 109.092 434.202 109.055 434.483C109.578 434.684 110.133 434.791 110.693 434.799C111.722 434.833 112.738 434.568 113.618 434.035C113.448 433.924 113.286 433.803 113.133 433.671C111.919 432.603 111.361 430.881 111.579 428.418C111.737 426.526 112.174 425.482 112.938 425.155C113.185 425.056 113.455 425.031 113.716 425.083C113.976 425.134 114.216 425.261 114.407 425.446C115.226 426.35 115.838 427.422 116.201 428.587C116.563 429.752 116.667 430.982 116.506 432.191C116.401 432.694 116.19 433.17 115.887 433.586C118.61 433.775 121.344 433.467 123.957 432.676C124.033 432.656 124.113 432.652 124.191 432.663C124.269 432.674 124.345 432.701 124.412 432.741C124.48 432.782 124.539 432.836 124.586 432.9C124.633 432.963 124.666 433.036 124.685 433.113C124.722 433.269 124.697 433.433 124.616 433.571C124.534 433.709 124.402 433.81 124.248 433.853C120.959 434.665 117.416 435.32 114.916 434.605C113.694 435.527 112.201 436.022 110.669 436.012C109.989 436.003 109.316 435.876 108.679 435.636C108.397 436.072 108.018 436.438 107.572 436.705C107.126 436.972 106.625 437.134 106.106 437.176C105.194 437.294 104.268 437.215 103.388 436.946C103.102 437.42 102.679 437.796 102.175 438.026C101.531 438.321 100.832 438.478 100.124 438.487ZM99.0804 428.442C98.9205 429.247 98.9538 430.079 99.1775 430.868C99.3488 431.84 99.7514 432.756 100.351 433.539C100.951 434.322 101.73 434.95 102.624 435.369C102.606 435.078 102.557 434.789 102.478 434.508C101.532 431.087 99.7115 428.697 99.0804 428.442ZM105.84 427.387C105.848 428.224 105.917 429.059 106.046 429.886C106.182 431.364 106.835 432.748 107.89 433.792C107.592 431.552 106.897 429.384 105.84 427.387ZM113.472 426.332C113.472 426.332 113.011 426.562 112.841 428.588C112.671 430.614 113.023 432.009 113.97 432.809C114.191 432.995 114.436 433.15 114.698 433.27C115.021 432.932 115.248 432.513 115.353 432.057C115.569 430.148 115.053 428.228 113.909 426.683C113.654 426.38 113.509 426.332 113.472 426.332Z" fill="#263238"/>
<path d="M277.729 447.645L281.017 441.944L277.729 436.254H274.21L276.2 441.944L274.21 447.645H277.729Z" fill="#263238"/>
<path d="M274.44 444.928C274.034 444.954 273.628 444.896 273.245 444.759C272.863 444.622 272.513 444.407 272.216 444.129C271.92 443.852 271.684 443.516 271.522 443.143C271.361 442.77 271.277 442.368 271.277 441.962C271.277 441.556 271.361 441.154 271.522 440.781C271.684 440.408 271.92 440.072 272.216 439.794C272.513 439.516 272.863 439.302 273.245 439.165C273.628 439.027 274.034 438.97 274.44 438.996L268.858 437.868L267.365 442.38L269.865 446.189L274.44 444.928Z" fill="#263238"/>
<path d="M274.925 436.254H268.336L265.048 441.956L268.336 447.657H274.925L278.214 441.956L274.925 436.254ZM271.637 444.928C271.048 444.93 270.472 444.758 269.982 444.433C269.491 444.108 269.108 443.644 268.882 443.102C268.655 442.559 268.594 441.961 268.707 441.383C268.821 440.806 269.103 440.276 269.518 439.859C269.934 439.442 270.463 439.158 271.04 439.042C271.617 438.926 272.216 438.984 272.76 439.209C273.304 439.433 273.769 439.814 274.096 440.303C274.423 440.792 274.598 441.367 274.598 441.956C274.598 442.742 274.286 443.496 273.731 444.053C273.176 444.61 272.423 444.925 271.637 444.928Z" fill="#EE0033"/>
<path d="M507.1 435.866L504.661 431.633L507.1 427.399H509.709L508.241 431.633L509.709 435.866H507.1Z" fill="#EE0033"/>
<path d="M509.539 433.84C509.842 433.863 510.147 433.823 510.433 433.722C510.72 433.622 510.983 433.463 511.205 433.257C511.428 433.05 511.606 432.8 511.727 432.521C511.849 432.243 511.911 431.942 511.911 431.639C511.911 431.335 511.849 431.035 511.727 430.756C511.606 430.478 511.428 430.227 511.205 430.021C510.983 429.814 510.72 429.656 510.433 429.555C510.147 429.455 509.842 429.415 509.539 429.437L513.689 428.6L514.794 431.96L512.949 434.787L509.539 433.84Z" fill="#EE0033"/>
<path d="M509.187 427.399H514.041L516.468 431.633L514.041 435.866H509.187L506.76 431.633L509.187 427.399ZM511.614 433.84C512.052 433.843 512.48 433.715 512.844 433.474C513.209 433.233 513.494 432.889 513.663 432.486C513.832 432.083 513.878 431.638 513.794 431.209C513.71 430.78 513.501 430.386 513.192 430.076C512.884 429.766 512.49 429.554 512.062 429.468C511.633 429.382 511.188 429.425 510.784 429.592C510.38 429.759 510.034 430.042 509.791 430.405C509.548 430.768 509.418 431.195 509.418 431.633C509.418 432.218 509.651 432.78 510.065 433.194C510.479 433.608 511.041 433.84 511.626 433.84H511.614Z" fill="#263238"/>
<path d="M416.223 441.556H421.708C422.393 441.549 423.049 441.273 423.533 440.787C424.016 440.302 424.289 439.645 424.292 438.96C424.292 438.273 424.02 437.615 423.536 437.128C423.052 436.642 422.394 436.367 421.708 436.364H416.223C415.534 436.364 414.874 436.637 414.387 437.124C413.9 437.611 413.626 438.271 413.626 438.96C413.629 439.647 413.904 440.306 414.39 440.792C414.876 441.278 415.535 441.552 416.223 441.556Z" fill="#263238"/>
<path d="M407.401 436.594C407.91 435.673 408.678 434.921 409.61 434.43C410.541 433.94 411.596 433.732 412.644 433.833C413.692 433.934 414.688 434.339 415.509 434.998C416.33 435.658 416.94 436.543 417.264 437.544C417.588 438.546 417.613 439.62 417.334 440.635C417.055 441.65 416.486 442.562 415.695 443.257C414.905 443.953 413.929 444.403 412.886 444.551C411.844 444.699 410.781 444.539 409.828 444.091C408.513 443.417 407.519 442.249 407.064 440.844C406.61 439.439 406.73 437.91 407.401 436.594Z" fill="#EE0033"/>
<path d="M408.891 444.082L410.395 444.791L415.621 433.708L414.117 433L408.891 444.082Z" fill="#263238"/>
</g>
<defs>
<clipPath id="clip0_17992_168015">
<rect width="606.739" height="452" fill="white"/>
</clipPath>
</defs>
</svg>
