<svg width="24" height="25" viewBox="0 0 24 25" fill="none" xmlns="http://www.w3.org/2000/svg">
<path d="M12 2.27734C6.49 2.27734 2 6.76734 2 12.2773C2 17.7873 6.49 22.2773 12 22.2773C17.51 22.2773 22 17.7873 22 12.2773C22 6.76734 17.51 2.27734 12 2.27734ZM16 13.0273H12.75V16.2773C12.75 16.6873 12.41 17.0273 12 17.0273C11.59 17.0273 11.25 16.6873 11.25 16.2773V13.0273H8C7.59 13.0273 7.25 12.6873 7.25 12.2773C7.25 11.8673 7.59 11.5273 8 11.5273H11.25V8.27734C11.25 7.86734 11.59 7.52734 12 7.52734C12.41 7.52734 12.75 7.86734 12.75 8.27734V11.5273H16C16.41 11.5273 16.75 11.8673 16.75 12.2773C16.75 12.6873 16.41 13.0273 16 13.0273Z" fill="#7A7A7A"/>
</svg>
