<svg width="22" height="15" viewBox="0 0 22 15" fill="none" xmlns="http://www.w3.org/2000/svg">
<path d="M11 5.37027C9.1773 5.37027 7.7 6.57286 7.7 8.05541C7.7 9.5385 9.1773 10.7405 11 10.7405C12.8223 10.7405 14.3 9.5385 14.3 8.05541C14.3 6.57286 12.8223 5.37027 11 5.37027ZM19.8 2.68514H17.16C16.797 2.68514 16.4058 2.456 16.2912 2.17568L15.6088 0.509281C15.4937 0.229132 15.103 0 14.74 0H7.26C6.897 0 6.50584 0.229132 6.39122 0.50946L5.70878 2.17586C5.59372 2.45601 5.203 2.68514 4.84 2.68514H2.2C0.99 2.68514 0 3.49068 0 4.47523V12.5306C0 13.5152 0.99 14.3207 2.2 14.3207H19.8C21.01 14.3207 22 13.5152 22 12.5306V4.47523C22 3.49068 21.01 2.68514 19.8 2.68514ZM11 12.5306C7.96246 12.5306 5.5 10.527 5.5 8.05541C5.5 5.58401 7.96246 3.58018 11 3.58018C14.0371 3.58018 16.5 5.58401 16.5 8.05541C16.5 10.527 14.0371 12.5306 11 12.5306ZM19.03 5.72704C18.605 5.72704 18.26 5.44671 18.26 5.10051C18.26 4.75466 18.605 4.47397 19.03 4.47397C19.4555 4.47397 19.8 4.75466 19.8 5.10051C19.8 5.44671 19.4553 5.72704 19.03 5.72704Z" fill="white"/>
</svg>
