<svg width="12" height="12" viewBox="0 0 12 12" fill="none" xmlns="http://www.w3.org/2000/svg">
<path d="M11.7045 10.2675C11.7989 10.3617 11.8738 10.4736 11.925 10.5968C11.9761 10.72 12.0024 10.8521 12.0024 10.9855C12.0024 11.1189 11.9761 11.2509 11.925 11.3741C11.8738 11.4974 11.7989 11.6093 11.7045 11.7035C11.5114 11.8928 11.2518 11.9988 10.9814 11.9988C10.711 11.9988 10.4513 11.8928 10.2583 11.7035L6.00124 7.43618L1.73401 11.7035C1.64001 11.7995 1.52735 11.8752 1.40297 11.926C1.2786 11.9768 1.14514 12.0016 1.01082 11.9988C0.878158 12.0005 0.746531 11.9752 0.623957 11.9245C0.501382 11.8737 0.390424 11.7985 0.297839 11.7035C0.203425 11.6093 0.128521 11.4973 0.0774136 11.3741C0.0263065 11.2509 0 11.1188 0 10.9855C0 10.8521 0.0263065 10.72 0.0774136 10.5968C0.128521 10.4736 0.203425 10.3617 0.297839 10.2675L4.56519 6.00017L0.297798 1.73288C0.108967 1.5421 0.0033555 1.28431 0.00405261 1.01588C0.00474972 0.747457 0.111699 0.490224 0.301518 0.300426C0.491337 0.110629 0.748582 0.00370888 1.01701 0.00304223C1.28544 0.00237558 1.54321 0.108017 1.73397 0.296869L6.0012 4.56416L10.2582 0.296869C10.4505 0.106081 10.7104 -0.000976563 10.9813 -0.000976562C11.2522 -0.000976562 11.5121 0.106081 11.7044 0.296869C11.7989 0.39108 11.8738 0.502993 11.9249 0.626199C11.976 0.749405 12.0023 0.881484 12.0023 1.01487C12.0023 1.14826 11.976 1.28034 11.9249 1.40355C11.8738 1.52675 11.7989 1.63867 11.7044 1.73288L7.43708 6.00017L11.7045 10.2675Z" fill="#FF0000"/>
</svg>
