<svg width="16" height="16" viewBox="0 0 16 16" fill="none" xmlns="http://www.w3.org/2000/svg">
<path d="M3 2.5L13 13.5" stroke="#747475" stroke-linecap="round" stroke-linejoin="round"/>
<path d="M9.68155 9.85012C9.19092 10.2961 8.54325 10.5289 7.88099 10.4973C7.21874 10.4657 6.59614 10.1724 6.15016 9.6818C5.70417 9.19121 5.47132 8.54356 5.50283 7.8813C5.53433 7.21904 5.82762 6.59642 6.31816 6.15039" stroke="#747475" stroke-linecap="round" stroke-linejoin="round"/>
<path d="M4.62465 4.28711C2.07657 5.57746 1 8.00001 1 8.00001C1 8.00001 3 12.4995 8 12.4995C9.1715 12.5089 10.3284 12.239 11.3748 11.7124" stroke="#747475" stroke-linecap="round" stroke-linejoin="round"/>
<path d="M13.0383 10.5687C14.4009 9.34827 15.0002 8.00001 15.0002 8.00001C15.0002 8.00001 13.0002 3.49952 8.00016 3.49952C7.56711 3.49881 7.13475 3.53402 6.70752 3.60478" stroke="#747475" stroke-linecap="round" stroke-linejoin="round"/>
<path d="M8.4707 5.54443C9.00206 5.64647 9.48601 5.91803 9.84997 6.31839C10.2139 6.71875 10.4383 7.22633 10.4893 7.76498" stroke="#747475" stroke-linecap="round" stroke-linejoin="round"/>
</svg>
