<svg width="17" height="12" viewBox="0 0 17 12" fill="none" xmlns="http://www.w3.org/2000/svg">
<path d="M10.2487 7.34236C12.2513 7.34236 16.2488 8.23486 16.2488 10.0266V11.3687H4.24875V10.0266C4.24875 8.23486 8.24625 7.34236 10.2487 7.34236ZM10.2487 6.00026C9.4531 6.00026 8.69004 5.71746 8.12743 5.21407C7.56482 4.71068 7.24875 4.02794 7.24875 3.31605C7.24875 2.60415 7.56482 1.92141 8.12743 1.41802C8.69004 0.914636 9.4531 0.631836 10.2487 0.631836C11.0444 0.631836 11.8075 0.914636 12.3701 1.41802C12.9327 1.92141 13.2488 2.60415 13.2488 3.31605C13.2488 4.02794 12.9327 4.71068 12.3701 5.21407C11.8075 5.71746 11.0444 6.00026 10.2487 6.00026ZM2.74875 4.38302L4.33875 2.95368L5.40375 3.90657L3.80625 5.3292L5.40375 6.75184L4.33875 7.70473L2.74875 6.27539L1.15875 7.70473L0.09375 6.75184L1.69125 5.3292L0.09375 3.90657L1.15875 2.95368L2.74875 4.38302Z" fill="#EE0033"/>
</svg>
