<svg width="20" height="20" viewBox="0 0 20 20" fill="none" xmlns="http://www.w3.org/2000/svg">
<path d="M13.9987 2.66699C12.1587 2.66699 10.6654 4.16033 10.6654 6.00033V7.33366H4.66536C3.93203 7.33366 3.33203 7.92699 3.33203 8.66699V15.3337C3.33203 16.0737 3.93203 16.667 4.66536 16.667H12.6654C13.4054 16.667 13.9987 16.0737 13.9987 15.3337V8.66699C13.9987 7.93366 13.4054 7.33366 12.6654 7.33366H11.9987V6.00033C11.9987 4.89366 12.892 4.00033 13.9987 4.00033C15.1054 4.00033 15.9987 4.89366 15.9987 6.00033V7.33366H17.332V6.00033C17.332 4.16033 15.8387 2.66699 13.9987 2.66699ZM8.66536 10.667C9.3987 10.667 9.9987 11.2603 9.9987 12.0003C9.9987 12.7403 9.40536 13.3337 8.66536 13.3337C7.93203 13.3337 7.33203 12.7403 7.33203 12.0003C7.33203 11.267 7.93203 10.667 8.66536 10.667Z" fill="black"/>
</svg>
