<svg width="12" height="13" viewBox="0 0 12 13" fill="none" xmlns="http://www.w3.org/2000/svg">
<path d="M1.64952 11.4757C1.64953 11.8767 1.80884 12.2613 2.09241 12.5449C2.37598 12.8285 2.76059 12.9878 3.16162 12.9878H8.92459C9.32568 12.9878 9.71033 12.8285 9.99394 12.5449C10.2776 12.2612 10.4369 11.8766 10.4369 11.4755V5.24325H1.64952V11.4757ZM8.17124 7.0095C8.24261 7.0095 8.31329 7.02356 8.37923 7.05087C8.44516 7.07818 8.50508 7.11821 8.55554 7.16868C8.60601 7.21915 8.64604 7.27906 8.67336 7.345C8.70067 7.41094 8.71473 7.48161 8.71473 7.55298V10.8139C8.71473 10.958 8.65747 11.0962 8.55554 11.1982C8.45362 11.3001 8.31538 11.3573 8.17124 11.3573C8.0271 11.3573 7.88887 11.3001 7.78694 11.1982C7.68502 11.0962 7.62776 10.958 7.62776 10.8139V7.55298C7.62776 7.40884 7.68502 7.2706 7.78694 7.16868C7.88887 7.06676 8.0271 7.0095 8.17124 7.0095ZM5.99732 7.0095C6.06869 7.0095 6.13936 7.02356 6.2053 7.05087C6.27124 7.07818 6.33115 7.11821 6.38162 7.16868C6.43209 7.21915 6.47212 7.27906 6.49943 7.345C6.52674 7.41094 6.5408 7.48161 6.5408 7.55298V10.8139C6.5408 10.958 6.48354 11.0962 6.38162 11.1982C6.2797 11.3001 6.14146 11.3573 5.99732 11.3573C5.85318 11.3573 5.71494 11.3001 5.61302 11.1982C5.5111 11.0962 5.45384 10.958 5.45384 10.8139V7.55298C5.45384 7.40884 5.5111 7.2706 5.61302 7.16868C5.71494 7.06676 5.85318 7.0095 5.99732 7.0095ZM3.82339 7.0095C3.89477 7.0095 3.96544 7.02356 4.03138 7.05087C4.09731 7.07818 4.15723 7.11821 4.20769 7.16868C4.25816 7.21915 4.29819 7.27906 4.32551 7.345C4.35282 7.41094 4.36688 7.48161 4.36688 7.55298V10.8139C4.36688 10.958 4.30962 11.0962 4.20769 11.1982C4.10577 11.3001 3.96753 11.3573 3.82339 11.3573C3.67925 11.3573 3.54102 11.3001 3.4391 11.1982C3.33717 11.0962 3.27991 10.958 3.27991 10.8139V7.55298C3.27991 7.48161 3.29397 7.41093 3.32129 7.34499C3.3486 7.27905 3.38864 7.21914 3.43911 7.16867C3.48958 7.1182 3.54949 7.07817 3.61544 7.05086C3.68138 7.02355 3.75205 7.0095 3.82343 7.0095H3.82339ZM10.8415 2.84194H8.94401V1.86153C8.94401 1.49719 8.79927 1.14778 8.54165 0.890151C8.28402 0.632526 7.93461 0.487793 7.57027 0.487793H4.42712C4.06278 0.487793 3.71337 0.632526 3.45574 0.890151C3.19812 1.14778 3.05338 1.49719 3.05338 1.86153V2.8447H1.15047C1.07315 2.84429 0.996519 2.85922 0.925008 2.88861C0.853497 2.91801 0.788523 2.96129 0.733846 3.01596C0.679169 3.07062 0.635874 3.13559 0.606464 3.20709C0.577054 3.2786 0.562114 3.35523 0.562508 3.43254V4.02042C0.562508 4.17633 0.624442 4.32585 0.734685 4.43609C0.844928 4.54634 0.99445 4.60827 1.15036 4.60827H10.8442C10.9214 4.60827 10.9978 4.59306 11.0692 4.56351C11.1405 4.53396 11.2053 4.49065 11.2599 4.43605C11.3145 4.38144 11.3578 4.31662 11.3874 4.24528C11.4169 4.17394 11.4321 4.09748 11.4321 4.02026V3.43254C11.4321 3.27591 11.3699 3.12569 11.2591 3.01493C11.1484 2.90417 10.9982 2.84194 10.8415 2.84194ZM7.76533 2.84194H4.23206V2.08983C4.23206 1.97749 4.27669 1.86975 4.35613 1.79031C4.43557 1.71087 4.54331 1.66624 4.65565 1.66624H7.34176C7.4541 1.66624 7.56184 1.71087 7.64128 1.79031C7.72072 1.86975 7.76535 1.97749 7.76535 2.08983L7.76533 2.84194Z" fill="#EE0033"/>
</svg>
