<svg width="20" height="21" viewBox="0 0 20 21" fill="none" xmlns="http://www.w3.org/2000/svg">
<path fill-rule="evenodd" clip-rule="evenodd" d="M7.9475 17.5702C8.84361 17.9524 9.80556 18.1436 10.8333 18.1436C12.9167 18.1436 14.6875 17.4144 16.1458 15.9561C17.6042 14.4977 18.3333 12.7269 18.3333 10.6436C18.3339 9.60133 18.1361 8.6255 17.74 7.71605C17.3439 6.80661 16.8092 6.01494 16.1358 5.34105C15.4625 4.66828 14.6708 4.13383 13.7608 3.73772C12.8508 3.34161 11.875 3.14355 10.8333 3.14355C9.79222 3.14411 8.81667 3.34217 7.90667 3.73772C6.99667 4.13328 6.205 4.66772 5.53167 5.34105C4.85833 6.01439 4.32361 6.80606 3.9275 7.71605C3.53139 8.62605 3.33333 9.60189 3.33333 10.6436V10.8102L1.8125 9.26855L0.625 10.4352L4.16667 13.9769L7.70833 10.4352L6.52083 9.26855L5 10.7894V10.6436C5 9.03244 5.56944 7.65744 6.70833 6.51855C7.84722 5.37967 9.22222 4.81022 10.8333 4.81022C12.4444 4.81022 13.8194 5.37967 14.9583 6.51855C16.0972 7.65744 16.6667 9.03244 16.6667 10.6436C16.6667 12.2547 16.0972 13.6297 14.9583 14.7686C13.8194 15.9074 12.4444 16.4769 10.8333 16.4769C10.0417 16.4774 9.29861 16.3283 8.60417 16.0294C7.90972 15.7305 7.29861 15.3241 6.77083 14.8102L5.58333 15.9977C6.26333 16.6638 7.05139 17.188 7.9475 17.5702Z" fill="#F57322"/>
</svg>
