<svg width="20" height="21" viewBox="0 0 20 21" fill="none" xmlns="http://www.w3.org/2000/svg">
<path d="M10 0.277344C4.5 0.277344 0 4.77734 0 10.2773C0 15.7773 4.5 20.2773 10 20.2773C15.5 20.2773 20 15.7773 20 10.2773C20 4.77734 15.5 0.277344 10 0.277344ZM14.1667 14.444C13.8333 14.7773 13 14.7773 12.6667 14.444L10 11.6107L7.33333 14.444C7 14.7773 6.16667 14.7773 5.83333 14.444C5.5 14.1107 5.5 13.2773 5.83333 12.944L8.5 10.2773L6 7.61068C5.66667 7.27734 5.66667 6.61068 6 6.11068C6.33333 5.77734 7.16667 5.77734 7.5 6.11068L10 8.61068L12.5 6.11068C12.8333 5.77734 13.5 5.77734 14 6.11068C14.3333 6.44401 14.3333 7.11068 14 7.61068L11.5 10.1107L14.1667 12.7773C14.6667 13.2773 14.6667 13.944 14.1667 14.444Z" fill="#7A7A7A"/>
</svg>
