<svg xmlns="http://www.w3.org/2000/svg" width="6" height="14" viewBox="0 0 6 14" fill="none">
<path d="M1.3125 1.83105C1.3125 1.48296 1.45078 1.14912 1.69692 0.902977C1.94306 0.656836 2.2769 0.518555 2.625 0.518555C2.9731 0.518555 3.30694 0.656836 3.55308 0.902977C3.79922 1.14912 3.9375 1.48296 3.9375 1.83105C3.9375 2.17915 3.79922 2.51299 3.55308 2.75913C3.30694 3.00527 2.9731 3.14355 2.625 3.14355C2.2769 3.14355 1.94306 3.00527 1.69692 2.75913C1.45078 2.51299 1.3125 2.17915 1.3125 1.83105ZM0 5.76855C0 5.28457 0.391016 4.89355 0.875 4.89355H2.625C3.10898 4.89355 3.5 5.28457 3.5 5.76855V11.8936H4.375C4.85898 11.8936 5.25 12.2846 5.25 12.7686C5.25 13.2525 4.85898 13.6436 4.375 13.6436H0.875C0.391016 13.6436 0 13.2525 0 12.7686C0 12.2846 0.391016 11.8936 0.875 11.8936H1.75V6.64355H0.875C0.391016 6.64355 0 6.25254 0 5.76855Z" fill="#7A7A7A"/>
</svg>