<svg width="12" height="15" viewBox="0 0 12 15" fill="none" xmlns="http://www.w3.org/2000/svg">
<path d="M10.0033 5.48568V4.13874C10.0033 3.04082 9.56711 1.98787 8.79076 1.21152C8.01441 0.435171 6.96146 -0.000976562 5.86354 -0.000976562C4.76561 -0.000976562 3.71266 0.435171 2.93631 1.21152C2.15997 1.98787 1.72382 3.04082 1.72382 4.13874V5.48568C1.24895 5.54243 0.81133 5.7712 0.493696 6.12873C0.176062 6.48626 0.00042797 6.94778 0 7.42602L0 13.0493C0.00104296 13.5661 0.206808 14.0614 0.572248 14.4268C0.937688 14.7922 1.43303 14.998 1.94983 14.999H9.77708C10.2939 14.998 10.7892 14.7923 11.1546 14.4268C11.5201 14.0614 11.7258 13.5661 11.7268 13.0493V7.42602C11.7264 6.94781 11.5509 6.48631 11.2333 6.12877C10.9157 5.77124 10.4781 5.54246 10.0033 5.48568ZM6.57457 10.8075V12.2204C6.57457 12.4077 6.50014 12.5874 6.36766 12.7199C6.23518 12.8524 6.05549 12.9268 5.86813 12.9268C5.68077 12.9268 5.50109 12.8524 5.36861 12.7199C5.23612 12.5874 5.1617 12.4077 5.1617 12.2204V10.8075C4.9466 10.686 4.76777 10.5094 4.64361 10.2958C4.51944 10.0823 4.45443 9.83946 4.45526 9.59243C4.45526 9.21771 4.60412 8.85834 4.86908 8.59338C5.13405 8.32841 5.49341 8.17956 5.86813 8.17956C6.24285 8.17956 6.60222 8.32841 6.86718 8.59338C7.13215 8.85834 7.281 9.21771 7.281 9.59243C7.28186 9.83947 7.21686 10.0823 7.09269 10.2958C6.96852 10.5094 6.78968 10.686 6.57457 10.8075ZM8.11942 5.47626H3.60765V4.13874C3.60765 3.54044 3.84532 2.96665 4.26838 2.54359C4.69144 2.12053 5.26524 1.88285 5.86354 1.88285C6.46183 1.88285 7.03563 2.12053 7.45869 2.54359C7.88175 2.96665 8.11942 3.54044 8.11942 4.13874V5.47626Z" fill="#F57322"/>
</svg>
