<svg width="16" height="16" viewBox="0 0 16 16" fill="none" xmlns="http://www.w3.org/2000/svg">
<path d="M10 1C9.21082 1.00071 8.43299 1.18805 7.73003 1.54673C7.02707 1.9054 6.4189 2.42525 5.95518 3.06381C5.49146 3.70238 5.18534 4.44157 5.0618 5.22102C4.93827 6.00047 5.00083 6.79809 5.24438 7.54875L1.64625 11.1462C1.59983 11.1927 1.56303 11.2479 1.53793 11.3086C1.51284 11.3693 1.49995 11.4343 1.5 11.5V14C1.5 14.1326 1.55268 14.2598 1.64645 14.3536C1.74021 14.4473 1.86739 14.5 2 14.5H4.5C4.63261 14.5 4.75979 14.4473 4.85355 14.3536C4.94732 14.2598 5 14.1326 5 14V13H6C6.13261 13 6.25978 12.9473 6.35355 12.8536C6.44732 12.7598 6.5 12.6326 6.5 12.5V11.5H7.5C7.56568 11.5001 7.63073 11.4872 7.69142 11.4621C7.75212 11.437 7.80728 11.4002 7.85375 11.3538L8.45125 10.7556C9.13845 10.9787 9.86584 11.0503 10.5833 10.9653C11.3008 10.8803 11.9914 10.6408 12.6075 10.2634C13.2235 9.88591 13.7505 9.37941 14.152 8.77874C14.5536 8.17808 14.8201 7.49753 14.9334 6.78395C15.0467 6.07038 15.004 5.34072 14.8082 4.64524C14.6125 3.94975 14.2683 3.30495 13.7994 2.75524C13.3305 2.20553 12.7481 1.76397 12.0922 1.46096C11.4363 1.15794 10.7225 1.00068 10 1ZM11.25 5.75C11.0522 5.75 10.8589 5.69135 10.6944 5.58147C10.53 5.47159 10.4018 5.31541 10.3261 5.13268C10.2504 4.94996 10.2306 4.74889 10.2692 4.55491C10.3078 4.36093 10.403 4.18275 10.5429 4.04289C10.6827 3.90304 10.8609 3.8078 11.0549 3.76921C11.2489 3.73063 11.45 3.75043 11.6327 3.82612C11.8154 3.90181 11.9716 4.02998 12.0815 4.19443C12.1913 4.35888 12.25 4.55222 12.25 4.75C12.25 5.01522 12.1446 5.26957 11.9571 5.45711C11.7696 5.64464 11.5152 5.75 11.25 5.75Z" fill="#F57322"/>
</svg>
