<svg width="12" height="15" viewBox="0 0 12 15" fill="none" xmlns="http://www.w3.org/2000/svg">
<path d="M6.44741 10.8114V12.2242C6.44741 12.4116 6.37442 12.5913 6.2445 12.7238C6.11458 12.8563 5.93837 12.9307 5.75464 12.9307C5.5709 12.9307 5.39469 12.8563 5.26477 12.7238C5.13485 12.5913 5.06186 12.4116 5.06186 12.2242V10.8114C4.85093 10.6899 4.67556 10.5133 4.5538 10.2997C4.43204 10.0861 4.36828 9.84336 4.36908 9.59633C4.36908 9.41079 4.40492 9.22707 4.47455 9.05565C4.54418 8.88424 4.64624 8.72848 4.7749 8.59729C4.90356 8.46609 5.0563 8.36202 5.22441 8.29101C5.39251 8.22001 5.57268 8.18347 5.75464 8.18347C5.93659 8.18347 6.11676 8.22001 6.28486 8.29101C6.45297 8.36202 6.60571 8.46609 6.73437 8.59729C6.86303 8.72848 6.96509 8.88424 7.03472 9.05565C7.10435 9.22707 7.14019 9.41079 7.14019 9.59633C7.14102 9.84337 7.07727 10.0862 6.95551 10.2997C6.83374 10.5133 6.65836 10.6899 6.44741 10.8114ZM7.9624 5.48023H3.53785V4.14265C3.5371 3.84591 3.59376 3.55194 3.70461 3.27757C3.81545 3.0032 3.97828 2.75382 4.18379 2.54373C4.38929 2.33363 4.63342 2.16694 4.9022 2.05321C5.17098 1.93947 5.45912 1.88093 5.75012 1.88093C6.04113 1.88093 6.32927 1.93947 6.59805 2.05321C6.86683 2.16694 7.11096 2.33363 7.31646 2.54373C7.52197 2.75382 7.6848 3.0032 7.79564 3.27757C7.90649 3.55194 7.96315 3.84591 7.9624 4.14265C7.9624 4.14265 9.79935 4.15331 9.80981 4.14265C9.80981 3.04473 9.3821 1.99178 8.62076 1.21543C7.85942 0.439078 6.82683 0.00292969 5.75013 0.00292969C4.67344 0.00292969 3.64084 0.439078 2.8795 1.21543C2.11817 1.99178 1.69045 3.04473 1.69045 4.14265V5.48958C1.22477 5.54634 0.795623 5.77511 0.484138 6.13264C0.172654 6.49017 0.00041995 6.95168 0 7.42992L0 13.0532C0.00102271 13.57 0.202812 14.0653 0.561192 14.4307C0.919572 14.7962 1.40534 15.0019 1.91215 15.0029H9.58799C10.0948 15.0019 10.5805 14.7961 10.9389 14.4307C11.2972 14.0653 11.499 13.57 11.5 13.0532V7.42992C11.4996 6.95171 11.3274 6.49022 11.016 6.13269C10.7045 5.77516 10.2754 5.54637 9.80978 5.48958L7.9624 5.48023Z" fill="#F57322"/>
</svg>
