<svg width="14" height="14" viewBox="0 0 14 14" fill="none" xmlns="http://www.w3.org/2000/svg">
<path d="M13.6174 0.153198C13.8935 0.344564 14.0384 0.675355 13.9864 1.00615L12.2368 12.3788C12.1958 12.644 12.0345 12.8763 11.7994 13.0076C11.5643 13.1388 11.2827 13.1552 11.0339 13.0513L7.7643 11.6926L5.89164 13.7184C5.64833 13.9835 5.2656 14.071 4.92934 13.9398C4.59308 13.8086 4.37438 13.4832 4.37438 13.1224V10.8369C4.37438 10.7276 4.41539 10.6237 4.4892 10.5444L9.07106 5.54427C9.22962 5.37204 9.22415 5.10686 9.06013 4.94283C8.8961 4.7788 8.63092 4.76787 8.45869 4.92369L2.89812 9.86368L0.484169 8.65534C0.194385 8.51045 0.00848617 8.22066 0.000284741 7.89808C-0.00791668 7.57549 0.161579 7.27477 0.440428 7.11347L12.6879 0.114924C12.9804 -0.0518378 13.3413 -0.035435 13.6174 0.153198Z" fill="#37B8BF"/>
</svg>
