<svg width="13" height="17" viewBox="0 0 13 17" fill="none" xmlns="http://www.w3.org/2000/svg">
<path d="M11.0036 6.03532V4.55369C11.0036 3.34598 10.5238 2.18773 9.66983 1.33374C8.81585 0.479762 7.6576 0 6.44989 0C5.24218 0 4.08393 0.479762 3.22994 1.33374C2.37596 2.18773 1.8962 3.34598 1.8962 4.55369V6.03532C1.37384 6.09775 0.892463 6.34939 0.543066 6.74268C0.193668 7.13596 0.000470767 7.64363 0 8.1697L0 14.3553C0.00114725 14.9237 0.227489 15.4686 0.629473 15.8706C1.03146 16.2725 1.57633 16.4989 2.14481 16.5H10.7548C11.3233 16.4989 11.8681 16.2726 12.2701 15.8706C12.6721 15.4686 12.8984 14.9237 12.8995 14.3553V8.1697C12.8991 7.64366 12.7059 7.13601 12.3566 6.74273C12.0072 6.34944 11.5259 6.09778 11.0036 6.03532ZM7.23203 11.8893V13.4435C7.23203 13.6496 7.15016 13.8472 7.00442 13.993C6.85869 14.1387 6.66104 14.2206 6.45495 14.2206C6.24885 14.2206 6.0512 14.1387 5.90547 13.993C5.75974 13.8472 5.67787 13.6496 5.67787 13.4435V11.8893C5.44126 11.7557 5.24455 11.5614 5.10797 11.3265C4.97139 11.0916 4.89987 10.8245 4.90079 10.5527C4.90079 10.1406 5.06453 9.74525 5.35599 9.45379C5.64745 9.16233 6.04276 8.99859 6.45495 8.99859C6.86713 8.99859 7.26244 9.16233 7.5539 9.45379C7.84536 9.74525 8.00911 10.1406 8.00911 10.5527C8.01005 10.8245 7.93854 11.0916 7.80196 11.3265C7.66537 11.5614 7.46864 11.7557 7.23203 11.8893ZM8.93137 6.02496H3.96841V4.55369C3.96841 3.89556 4.22985 3.26439 4.69522 2.79902C5.16059 2.33365 5.79176 2.07221 6.44989 2.07221C7.10802 2.07221 7.73919 2.33365 8.20456 2.79902C8.66992 3.26439 8.93137 3.89556 8.93137 4.55369V6.02496Z" fill="#222222"/>
</svg>
