<svg width="16" height="12" viewBox="0 0 16 12" fill="none" xmlns="http://www.w3.org/2000/svg">
<path d="M6.13792 11.753C6.00871 11.7532 5.8809 11.7262 5.76285 11.6736C5.6448 11.6211 5.53916 11.5442 5.45283 11.4481L1.10664 6.61918C1.04471 6.55211 0.993161 6.47615 0.95371 6.39382C0.942471 6.36998 0.932125 6.34614 0.922674 6.32186L0.922241 6.32005C0.892124 6.24015 0.873351 6.15642 0.866469 6.07131V6.07089L0.86598 6.06905C0.864202 6.04521 0.863281 6.02092 0.863281 5.99663V5.99528C0.863281 5.97054 0.864202 5.9458 0.86598 5.92151L0.866432 5.91967V5.91925C0.873316 5.83415 0.892089 5.75042 0.922204 5.67052L0.922655 5.66872C0.932107 5.64443 0.942453 5.6206 0.953692 5.59676C0.993142 5.51443 1.04469 5.43847 1.10662 5.37139L5.45283 0.542532C5.61653 0.361922 5.84513 0.253558 6.08857 0.24118C6.33201 0.228802 6.57043 0.313418 6.7516 0.476493C6.93277 0.639567 7.04192 0.867802 7.05513 1.1112C7.06835 1.35459 6.98455 1.5933 6.8221 1.77503L3.85327 5.07404H14.2213C14.4656 5.07404 14.6999 5.17109 14.8727 5.34386C15.0454 5.51663 15.1425 5.75095 15.1425 5.99528C15.1425 6.2396 15.0454 6.47392 14.8727 6.64669C14.6999 6.81946 14.4656 6.91651 14.2213 6.91651H3.85327L6.8221 10.2155C6.94119 10.3479 7.01938 10.5119 7.04723 10.6877C7.07507 10.8636 7.05137 11.0437 6.97899 11.2063C6.90661 11.369 6.78866 11.5072 6.63939 11.6042C6.49013 11.7012 6.31595 11.7529 6.13792 11.753V11.753Z" fill="#222222"/>
</svg>
