<svg width="16" height="16" viewBox="0 0 16 16" fill="none" xmlns="http://www.w3.org/2000/svg">
<path d="M13.3008 2.69964C12.6147 1.98887 11.7898 1.42676 10.8774 1.04823C9.96491 0.66971 8.98435 0.482858 7.99662 0.499288C7.0059 0.486111 6.0229 0.675252 5.1078 1.05513C4.1927 1.43501 3.36475 1.99764 2.67463 2.70859C1.97099 3.39678 1.41528 4.2214 1.04154 5.13192C0.667795 6.04243 0.483895 7.01967 0.501105 8.00375C0.486797 8.99037 0.673739 9.96955 1.05052 10.8815C1.42729 11.7935 1.986 12.6191 2.69252 13.3079C3.38029 14.0157 4.20569 14.5754 5.11789 14.9522C6.03008 15.3291 7.00977 15.5153 7.99662 15.4993C8.98349 15.5153 9.96319 15.3291 10.8754 14.9523C11.7876 14.5754 12.613 14.0158 13.3008 13.3079C14.0073 12.6191 14.566 11.7935 14.9428 10.8815C15.3196 9.96955 15.5065 8.99037 15.4922 8.00375C15.5082 7.0169 15.322 6.03721 14.9452 5.12501C14.5683 4.21282 14.0087 3.38742 13.3008 2.69964ZM7.99662 3.29893C8.41501 3.29804 8.82425 3.42124 9.17262 3.65295C9.52098 3.88465 9.79281 4.21446 9.95374 4.60065C10.1147 4.98685 10.1574 5.41209 10.0767 5.82261C9.99594 6.23312 9.79527 6.61047 9.50005 6.90694C9.20484 7.20341 8.82834 7.40567 8.41817 7.48816C8.008 7.57065 7.58258 7.52966 7.19571 7.37037C6.80883 7.21108 6.47788 6.94065 6.24471 6.59327C6.01153 6.24589 5.8866 5.83716 5.88571 5.41878C5.88539 4.85801 6.1074 4.31998 6.50309 3.92262C6.89877 3.52526 7.43586 3.30097 7.99662 3.29893ZM11.5119 12.1808H11.5029C10.5402 13.0326 9.28008 13.4698 7.99668 13.3973C6.7237 13.4018 5.48712 12.9727 4.49042 12.1808H4.48142C4.28218 11.9915 4.14998 11.7425 4.1048 11.4714C4.05961 11.2003 4.1039 10.9219 4.23098 10.6782C4.61774 10.038 5.17446 9.5177 5.83925 9.17504C6.50405 8.83238 7.25085 8.68082 7.99662 8.7372C8.74227 8.6819 9.48868 8.83394 10.1533 9.17649C10.8179 9.51905 11.3748 10.0388 11.7624 10.6782C11.8894 10.9219 11.9337 11.2003 11.8885 11.4714C11.8433 11.7425 11.7111 11.9915 11.5119 12.1808Z" fill="#222222"/>
</svg>
